<svg width="983" height="712" viewBox="0 0 983 712" fill="none" xmlns="http://www.w3.org/2000/svg">
<path d="M1026.32 -24H-42V736.83H1026.32V-24Z" fill="#2C2C2C"/>
<path fill-rule="evenodd" clip-rule="evenodd" d="M455.874 687.465C437.712 687.524 420.065 688.145 401.851 688.204C327.815 688.452 253.099 688.096 178.795 685.09C157.794 684.242 152.551 684.264 131.641 682.947C119.294 682.898 82.208 681.878 84.0646 665.049C84.8842 633.713 92.6386 602.5 95.0812 571.244C99.7688 512.486 103.76 451.89 127.299 396.931C132.747 383.807 144.449 375.224 156.032 367.506C167.648 359.18 170.499 349.935 181.221 340.529C183.488 338.54 196.361 337.731 203.288 332.687C213.369 325.343 218.368 313.322 222.13 311.275C224.897 309.77 224.847 299.381 230.394 295.705C237.838 290.77 261.56 287.101 270.191 286.415C278.475 285.756 292.883 287.14 300.655 290.175C313.617 295.237 318.786 304.892 324.494 317.332C399.906 340.654 468.833 380.147 490.24 459.805C508.701 526.613 509.375 598.241 502.242 666.76C500.818 671.769 501.816 679.622 497.491 682.947C512.526 683.811 457.914 686.914 455.874 687.465Z" fill="white"/>
<path fill-rule="evenodd" clip-rule="evenodd" d="M112.874 621.498C114.301 620.786 115.789 619.971 117.419 619.912C120.217 619.815 120.221 615.459 117.419 615.556C114.974 615.642 112.827 616.662 110.677 617.737C108.167 618.989 110.374 622.745 112.874 621.498ZM117.419 498.851C115.509 498.852 113.584 499.094 112.117 500.431C111.245 501.226 111.314 502.708 112.117 503.511C112.976 504.371 114.327 504.304 115.196 503.511C114.913 503.769 115.194 503.514 115.296 503.456C115.321 503.443 115.335 503.434 115.341 503.428C115.363 503.423 115.385 503.419 115.42 503.409C115.647 503.352 115.872 503.296 116.102 503.254C116.106 503.265 116.588 503.222 116.702 503.218C116.941 503.209 117.18 503.208 117.419 503.208C118.6 503.207 119.596 502.212 119.596 501.03C119.596 499.853 118.596 498.85 117.419 498.851ZM137.893 547.728C138.516 550.464 142.714 549.298 142.092 546.567C141.187 542.6 141.352 538.531 142.092 534.548C142.601 531.806 138.404 530.64 137.893 533.393C137.005 538.169 136.807 542.962 137.893 547.728ZM143.392 391.131C146.635 390.36 149.843 390.268 153.16 390.267C155.966 390.266 155.962 385.909 153.16 385.91C149.46 385.911 145.848 386.07 142.235 386.929C139.505 387.578 140.668 391.778 143.392 391.131ZM154.258 497.263C156.139 496.323 158.021 495.381 159.902 494.44C162.412 493.185 160.204 489.428 157.704 490.678L152.061 493.501C149.551 494.757 151.759 498.514 154.258 497.263ZM155.042 583.07C157.428 586.513 160.782 588.65 164.808 589.719C167.524 590.437 168.672 586.232 165.966 585.515C163.087 584.754 160.529 583.361 158.802 580.873C157.214 578.579 153.441 580.759 155.042 583.07ZM170.088 429.659C170.734 428.452 171.705 427.942 172.911 427.915C175.713 427.851 175.714 423.493 172.911 423.558C170.163 423.62 167.642 425.001 166.329 427.46C165.006 429.934 168.767 432.133 170.088 429.659ZM197.707 459.276C198.488 460.127 200.001 460.106 200.786 459.276C201.267 458.769 201.671 458.201 201.988 457.58C202.109 457.344 202.223 457.104 202.356 456.875C202.415 456.773 202.481 456.672 202.549 456.574C202.572 456.554 202.619 456.504 202.668 456.453C203.505 455.567 203.483 454.261 202.668 453.371C201.887 452.521 200.373 452.542 199.588 453.371C199.108 453.879 198.704 454.446 198.386 455.068C198.266 455.303 198.152 455.544 198.018 455.774C197.959 455.875 197.893 455.976 197.826 456.074C197.803 456.094 197.756 456.143 197.707 456.195C196.87 457.08 196.891 458.387 197.707 459.276ZM200.029 523.618C202.865 524.913 205.975 524.913 208.811 523.618C209.885 523.127 210.14 521.572 209.591 520.633C208.957 519.548 207.681 519.365 206.613 519.856C205.327 520.444 203.511 520.444 202.226 519.856C201.153 519.365 199.89 519.538 199.248 520.633C198.697 521.578 198.959 523.127 200.029 523.618ZM207.764 569.161C208.252 570.31 209.304 570.926 210.534 570.974C211.752 571.017 212.66 569.938 212.711 568.794C212.743 568.054 212.345 567.423 211.772 567.034C211.771 566.991 211.77 566.953 211.77 566.91C211.769 565.69 210.772 564.783 209.592 564.735C208.417 564.681 207.415 565.771 207.415 566.91C207.416 567.682 207.463 568.443 207.764 569.161ZM218.998 641.56C222.474 641.614 225.869 642.445 229.344 642.499C232.152 642.548 232.144 638.192 229.344 638.144C225.87 638.09 222.474 637.259 218.998 637.205C216.191 637.156 216.199 641.517 218.998 641.56ZM233.449 362.335C235.483 364.274 237.996 365.23 240.473 366.441C242.983 367.668 245.188 363.909 242.671 362.678C240.572 361.652 238.249 360.894 236.527 359.254C234.497 357.319 231.415 360.397 233.449 362.335ZM238.908 412.558C240.336 411.845 241.824 411.03 243.453 410.974C246.252 410.875 246.256 406.518 243.453 406.616C241.008 406.701 238.862 407.721 236.711 408.796C234.2 410.05 236.408 413.807 238.908 412.558ZM265.085 614.131C265.729 612.922 266.701 612.409 267.907 612.382C270.71 612.323 270.711 607.962 267.907 608.027C265.158 608.092 262.638 609.473 261.324 611.929C260.003 614.406 263.762 616.603 265.085 614.131ZM274.149 519.511C275.016 518.717 274.956 517.238 274.149 516.429C273.209 515.489 272.269 514.548 271.328 513.607C270.468 512.746 269.118 512.808 268.249 513.607C267.382 514.403 267.443 515.878 268.249 516.688C269.19 517.627 270.13 518.571 271.071 519.511C271.931 520.374 273.28 520.309 274.149 519.511ZM284.837 666.971C287.979 666.901 290.924 665.999 293.881 665.012C296.531 664.132 295.388 659.922 292.724 660.813C290.153 661.665 287.57 662.551 284.837 662.615C282.035 662.68 282.034 667.036 284.837 666.971ZM298.946 573.797C301.784 573.716 304.138 572.27 306.129 570.332C308.142 568.378 305.059 565.296 303.05 567.255C301.91 568.362 300.596 569.393 298.946 569.441C296.144 569.517 296.142 573.872 298.946 573.797ZM290.185 453.971C290.15 455.131 289.661 456.374 288.941 457.136C287.017 459.176 290.092 462.261 292.02 460.217C293.611 458.532 294.472 456.277 294.539 453.971C294.62 451.161 290.265 451.173 290.185 453.971ZM323.399 359.071C324.31 357.285 325.504 355.192 327.32 354.206C329.787 352.866 327.587 349.105 325.123 350.443C322.654 351.784 320.887 354.426 319.639 356.871C318.365 359.367 322.124 361.569 323.399 359.071ZM329.043 404.385C330.053 404.357 331.056 404.183 332.03 403.919C332.447 403.805 332.858 403.675 333.275 403.562C333.453 403.514 334.212 403.419 333.746 403.444C334.925 403.381 335.923 402.497 335.923 401.265C335.923 400.133 334.922 399.023 333.746 399.087C332.13 399.173 330.66 399.982 329.043 400.028C326.243 400.107 326.241 404.464 329.043 404.385ZM343.151 474.032H347.854C350.661 474.032 350.656 469.674 347.854 469.674H343.151C340.345 469.674 340.35 474.032 343.151 474.032ZM348.637 666.674C350.063 667.387 351.744 668.067 352.899 669.157C354.936 671.084 358.019 668.007 355.978 666.075C354.507 664.682 352.626 663.808 350.835 662.912C349.779 662.383 348.482 662.621 347.855 663.695C347.29 664.661 347.585 666.151 348.637 666.674ZM359.145 611.621C359.327 611.567 359.52 611.535 359.704 611.508C360.445 611.411 361.219 611.443 361.963 611.443C364.769 611.443 364.765 607.082 361.963 607.088C359.754 607.088 357.457 607.12 355.72 608.664C354.839 609.452 354.924 610.952 355.72 611.746C356.586 612.614 357.922 612.528 358.799 611.746C358.707 611.832 359.024 611.654 359.145 611.621ZM361.962 537.575C361.329 536.269 361.319 535.422 361.318 533.97C361.316 531.163 356.962 531.169 356.964 533.97C356.965 536.075 357.278 537.867 358.202 539.778C358.717 540.841 360.226 541.116 361.18 540.56C362.25 539.934 362.474 538.633 361.962 537.575ZM374.552 435.366C377.077 436.226 379.332 437.442 381.556 438.911C383.903 440.461 386.083 436.687 383.754 435.149C381.216 433.473 378.59 432.145 375.71 431.164C373.046 430.258 371.913 434.468 374.552 435.366ZM389.239 362.032C391.115 362.085 393.051 362.805 394.724 363.618C397.237 364.838 399.442 361.08 396.921 359.854C394.533 358.694 391.919 357.75 389.239 357.675C386.431 357.596 386.442 361.954 389.239 362.032ZM395.823 557.794C396.561 557.832 397.191 557.432 397.583 556.855C397.623 556.855 397.664 556.855 397.704 556.855C398.924 556.855 399.828 555.856 399.881 554.674C399.934 553.503 398.842 552.499 397.704 552.499C396.935 552.499 396.173 552.548 395.458 552.845C394.305 553.336 393.692 554.388 393.645 555.619C393.599 556.839 394.68 557.745 395.823 557.794ZM406.531 407.131C409.205 408.005 410.34 403.796 407.688 402.929C404.576 401.912 401.395 401.123 398.282 400.105C395.608 399.231 394.473 403.44 397.125 404.307C400.237 405.325 403.418 406.113 406.531 407.131ZM416.296 489.374C417.126 492.048 421.327 490.9 420.495 488.215C419.692 485.624 419.634 483.016 419.633 480.323C419.631 477.515 415.277 477.52 415.278 480.323C415.28 483.388 415.382 486.424 416.296 489.374ZM445.409 587.879C445.568 588.963 446.428 589.746 447.553 589.795C448.699 589.849 449.772 588.758 449.73 587.619C449.651 585.423 447.864 583.636 445.672 583.555C444.453 583.512 443.546 584.592 443.495 585.736C443.445 586.848 444.373 587.717 445.409 587.879ZM460.142 462.66C462.443 463.429 464.902 464.16 466.705 465.864C468.744 467.789 471.827 464.713 469.785 462.783C467.406 460.537 464.346 459.476 461.3 458.458C458.631 457.567 457.498 461.777 460.142 462.66ZM470.128 547.307C470.76 548.386 472.041 548.581 473.106 548.089C474.534 547.42 476.111 547.447 477.651 547.442C480.457 547.442 480.453 543.086 477.651 543.086C475.276 543.086 473.084 543.313 470.908 544.322C469.837 544.824 469.577 546.362 470.128 547.307ZM475.77 650.029C476.989 650.077 477.896 648.998 477.947 647.854C477.997 646.742 477.069 645.873 476.032 645.711C475.875 644.626 475.014 643.843 473.889 643.789C472.742 643.741 471.67 644.831 471.711 645.97C471.792 648.161 473.578 649.953 475.77 650.029ZM79.0674 666.507C79.8071 663.84 81.5002 661.692 82.779 659.296C83.2079 658.486 83.3574 657.984 83.5899 657.396C83.9056 658.028 84.5185 658.503 85.4395 658.503C87.2076 658.503 89.2752 658.389 90.9251 659.145C91.9978 659.636 93.2619 659.463 93.9035 658.362C94.4549 657.418 94.1916 655.874 93.1227 655.383C90.691 654.271 88.0774 654.147 85.4395 654.141C84.7883 654.141 84.2951 654.384 83.9466 654.746C82.9387 640.934 82.9635 627.112 83.9174 613.289C84.9345 598.517 87.2756 584.041 89.7252 569.457C90.9111 562.387 92.4515 555.246 92.1521 548.046C91.8526 540.895 88.7885 534.229 90.9602 527.056C91.831 524.179 93.3224 521.545 94.2914 518.701C95.3306 515.641 95.2383 512.618 94.7646 509.448C93.7907 502.994 92.1742 496.616 94.7597 490.314C95.9025 487.52 97.7537 485.025 98.6456 482.138C99.756 478.549 99.6033 474.578 99.7889 470.859C100.164 463.353 100.262 455.798 100.883 448.31C101.16 444.954 101.764 441.773 103.142 438.696C104.465 435.733 106.429 433.037 107.305 429.895C108.176 426.801 108.252 423.538 108.721 420.374C109.211 417.029 109.978 413.734 111.012 410.521C115.008 398.081 122.328 386.904 130.977 377.215C140.171 366.915 151.16 359.159 162.824 351.932C168.958 348.131 175.091 344.33 181.221 340.529C181.352 341.242 181.806 341.898 182.678 342.19C184.98 342.959 187.438 343.69 189.242 345.394C191.28 347.319 194.363 344.242 192.321 342.313C190.191 340.301 187.513 339.241 184.789 338.31C187.581 336.549 190.404 334.725 193.556 333.707C196.316 332.814 200.387 333.593 202.625 331.567C204.382 329.971 204.938 327.013 205.612 324.845C206.456 322.155 207.185 319.317 208.258 316.703C208.987 314.916 210.048 313.201 211.387 311.817C211.975 309.551 213.053 307.482 214.958 306.223C219.944 302.923 226.067 306.202 228.26 310.908C230.073 310.902 231.983 311.3 233.747 311.409C237.372 311.638 241.003 311.741 244.633 311.73C251.736 311.708 258.845 311.245 265.888 310.303C278.483 308.614 290.703 305.21 303.086 302.558C303.156 302.395 303.238 302.231 303.336 302.068C306.004 297.591 312.649 298.348 316.836 300.042C318.631 300.766 320.46 301.681 321.489 303.381C322.578 304.116 323.519 305.009 324.145 305.951C325.44 307.896 326.442 311.817 329.071 312.144C330.802 312.356 332.56 312.024 334.318 312.275C336.517 312.58 338.487 313.353 340.518 314.236C355.976 320.951 371.956 328.418 388.732 331.022C392.667 331.632 396.673 332.264 400.091 334.47C402.867 336.262 405.013 338.723 407.304 341.06C409.535 343.337 411.375 344.344 414.559 344.753C418.424 345.249 421.771 346.316 424.596 349.127C426.942 351.463 428.471 354.448 430.311 357.16C432.184 359.927 434.933 361.485 437.785 363.092C444.529 366.894 450.81 371.485 456.28 376.992C467.803 388.604 474.781 403.528 481.813 418.07C489.417 433.799 496.526 449.72 501.455 466.518C506.289 483.01 509.165 499.976 510.492 517.098C511.89 535.071 512.089 553.109 513.255 571.087C513.832 580.069 514.275 589.061 514.722 598.047C515.159 606.926 515.796 615.82 515.694 624.71C515.494 641.895 512.062 659.134 506.057 675.223C504.557 679.223 502.901 683.174 501.131 687.06C499.577 690.476 494.272 690.093 492.607 687.06C492.226 686.364 491.926 685.646 491.676 684.917C487.322 684.955 482.924 684.615 478.597 685.02C470.954 685.732 463.296 686.131 455.633 686.606C440.468 687.546 425.276 688.172 410.107 689.041C408.635 689.122 407.163 689.208 405.692 689.294C416.503 655.815 415.1 619.615 416.811 584.797C416.949 581.985 412.593 582.001 412.456 584.797C410.739 619.766 412.201 656.058 401.009 689.591C396.666 689.888 392.33 690.244 388.008 690.773C384.514 691.189 381.003 691.685 377.476 691.513C373.475 691.324 369.567 690.406 365.664 689.613C358.572 688.166 351.741 688.819 344.622 689.71C337.007 690.66 329.365 691.189 321.701 691.523C291.013 692.867 260.118 694.092 229.441 692.042C222.017 691.545 214.609 690.849 207.234 689.899C199.635 688.927 192.119 687.286 184.526 686.353C177.042 685.441 170.162 687.95 162.765 688.414C155.221 688.884 147.475 687.313 140.002 686.407C137.564 686.11 135.123 685.824 132.682 685.538C135.825 663.986 137.612 642.267 139.347 620.559C139.571 617.758 135.215 617.785 134.993 620.559C133.271 642.1 131.524 663.652 128.386 685.036C115.446 683.53 102.492 682.008 89.6863 679.66C86.0395 678.996 82.4148 677.911 80.2317 674.657C78.6158 672.244 78.2888 669.286 79.0674 666.507Z" fill="black"/>
<path fill-rule="evenodd" clip-rule="evenodd" d="M176.857 209.393C178.029 199.09 176.513 177.557 176.411 176.248C175.769 167.978 179.641 135.318 186.962 138.327C199.243 128.599 215.6 126.451 230.894 125.425C262.664 123.293 296.462 128.187 320.993 149.581C333.125 160.692 344.936 176.851 343.986 193.677C355.01 209.626 370.549 231.503 356.815 250.148C352.147 256.105 344.727 258.324 338.862 262.835C327.067 272.356 319.666 286.02 307.758 295.483C276.21 323.851 222.641 329.777 191.646 297.511C167.677 274.143 171.553 239.183 175.769 209.393C178.603 189.364 174.572 229.491 176.857 209.393Z" fill="white"/>
<path fill-rule="evenodd" clip-rule="evenodd" d="M273.334 81.7363C264.837 80.0205 256.113 78.9529 247.436 79.274L246.767 79.3005C240.239 79.5612 231.971 80.1387 226.276 83.9379C225.948 83.6086 225.421 83.4397 224.943 83.668C218.176 86.9004 210.731 89.238 203.606 91.56C196.512 93.8711 189.153 95.3969 181.719 96.0117C178.922 96.2432 176.528 99.2657 178.299 101.976C178.72 102.622 179.13 103.275 179.539 103.929C178.856 103.858 178.172 103.784 177.489 103.715C175.239 103.488 172.991 105.891 173.125 108.083C173.208 109.461 173.357 110.823 173.577 112.169C172.72 112.151 171.868 112.28 171.045 112.628C166.878 114.388 167.168 119.356 167.48 123.134C167.912 128.378 169.872 133.933 173.511 137.858C170.794 140.682 168.87 144.054 167.723 148.06C166.891 150.984 166.428 154.1 166.656 157.144L166.729 158.056C167.012 161.36 167.574 165.018 169.949 167.395C171.169 168.621 172.671 169.067 174.103 168.926C173.237 176.54 172.682 184.198 172.159 191.829L171.914 195.476C170.748 213.112 169.873 230.863 170.101 248.528C170.315 265.036 173.574 281.061 183.693 294.465C192.908 306.67 206.14 315.668 221.108 319.089C229.175 320.935 237.41 321.066 245.575 319.889C249.532 319.317 253.516 318.441 257.272 317.057C261.43 315.521 264.419 313.261 267.216 309.873C268.539 308.266 267.903 304.846 265.267 305.167C261.283 305.651 257.645 306.234 253.824 307.413L253.277 307.586C249.472 308.806 245.531 309.715 241.553 310.102C233.404 310.892 225.131 310.097 217.325 307.624C204.616 303.593 193.67 294.612 186.654 283.326C178.326 269.95 177.384 254.764 177.505 239.383C177.634 222.505 178.182 205.617 179.078 188.756L179.23 185.946C179.704 177.27 180.161 168.588 180.563 159.906C180.689 157.183 180.879 154.438 181.222 151.72C184.362 149.879 187.176 147.341 189.011 144.209C192.696 145.734 196.571 146.834 200.137 147.711C208.396 149.744 216.971 150.237 225.378 148.964C227.645 149.902 229.958 150.726 232.306 151.435C232.941 151.716 233.576 151.993 234.21 152.264C239.871 154.688 245.614 156.741 251.589 158.245L253.057 158.611C256.202 159.387 259.618 160.151 262.965 160.391C263.515 160.603 264.108 160.783 264.756 160.941C267.804 161.681 270.967 161.916 274.091 161.654C277.134 161.399 279.333 158.321 277.657 155.44C276.432 153.337 275.196 151.24 273.949 149.149C278.287 150.957 282.767 152.461 287.284 153.735C291.846 155.021 296.473 156.104 301.105 157.101C303.582 157.629 306.068 158.098 308.54 158.626C310.309 159.002 313.025 159.198 314.468 160.363C316.062 161.644 316.514 164.628 317.119 166.469C317.913 168.86 318.659 171.262 319.339 173.692C320.694 178.539 321.805 183.457 322.665 188.425C323.525 193.397 324.102 198.419 324.423 203.457C324.743 208.49 324.603 213.555 325.119 218.566C325.397 221.224 328.249 222.591 330.355 220.734C330.602 220.516 330.852 220.296 331.098 220.073L331.466 219.737C333.268 218.103 335.015 216.371 336.457 214.421C336.718 214.062 336.969 213.686 337.203 213.305C337.241 213.305 337.274 213.294 337.311 213.266L337.711 212.965C342.113 209.687 349.468 205.412 353.761 210.859C355.128 212.594 355.829 214.804 356.41 216.936L357.43 220.75C358.09 223.241 358.71 225.746 359.073 228.294C359.895 234.002 359.482 240.581 355.557 245.156C353.989 246.987 351.828 248.293 349.417 248.637C348.073 248.822 346.744 248.593 345.411 248.425C344.056 248.256 342.749 248.528 341.394 248.397C339.239 248.185 338.297 250.766 339.102 252.389C339.538 253.261 340.05 254.012 340.632 254.65C340.164 255.053 339.717 255.489 339.287 255.946C338.014 256.355 336.871 257.231 336.016 258.392C335.325 259.329 334.966 260.347 334.906 261.42C334.83 261.687 334.765 261.959 334.704 262.237L333.537 264.133C333.28 264.55 333.024 264.96 332.767 265.364C329.795 270.047 326.497 274.013 322.398 277.749C318.451 281.344 314.168 284.563 310.461 288.419L310.024 288.877C306.568 292.521 302.925 296.932 304.278 302.232C304.626 303.593 306.527 304.573 307.767 303.653C311.756 300.69 313.766 295.995 317.15 292.4C320.635 288.697 324.494 285.369 327.988 281.676C331.292 278.19 333.899 274.242 335.864 269.895C336.648 270.761 337.79 271.377 339.375 271.616C342.096 272.024 344.633 270.429 345.819 268.07C346.581 268.408 347.359 268.713 348.144 268.953C352.269 270.216 354.865 265.625 353.309 262.231C352.477 260.413 351.437 258.833 350.146 257.504C354.18 256.949 358.284 254.862 360.935 252.259C367.586 245.717 368.5 235.886 367.003 227.145C366.209 222.509 364.838 217.82 363.057 213.468C362.747 212.711 362.415 211.948 362.051 211.197C362.252 211.191 362.459 211.104 362.589 210.935C363.793 209.291 365.256 207.945 366.149 206.104C366.971 204.416 367.885 202.705 368.533 200.946C369.866 197.346 370.52 193.283 370.955 189.476C371.853 181.682 371.505 173.937 370.313 166.191C368.283 153 363.38 140.376 356.156 129.298C356.55 129.091 356.927 128.842 357.278 128.547L357.451 128.395L357.733 128.14C359.795 126.274 359.616 122.775 357.733 120.885L357.138 120.288C356.385 119.54 355.736 118.946 354.519 118.131C354.34 118.011 354.156 117.897 353.971 117.792C354.607 116.614 354.828 115.237 354.385 113.718C352.839 108.426 345.23 108.613 340.407 110.921C335.071 106.156 329.154 102.019 322.741 98.6699C307.468 90.6959 290.197 85.135 273.334 81.7363ZM352.285 221.115C349.433 220.184 345.645 222.139 343.081 223.316C339.832 224.808 337.066 227.014 334.389 229.345C333.055 230.51 332.816 232.417 333.148 234.046C333.181 234.209 333.213 234.377 333.252 234.546C333.605 236.284 335.543 237.651 337.257 237.602C340.844 237.504 342.553 234.405 344.584 231.78C344.823 232.205 345.122 232.596 345.493 232.891L345.743 233.086C346.586 233.729 347.515 234.242 348.628 234.192C349.417 234.154 350.173 233.953 350.87 233.588C352.613 232.667 353.379 230.413 352.906 228.577C352.613 227.423 351.938 226.518 351.055 225.892L351.384 225.667C352.088 225.177 352.729 224.661 353.229 223.899L353.341 223.718H353.298C353.843 222.782 353.488 221.507 352.285 221.115Z" fill="black"/>
<path fill-rule="evenodd" clip-rule="evenodd" d="M217.945 275.927C221.955 277.089 226.259 277.192 230.346 275.992C234.053 274.904 237.859 272.508 240.588 269.338C243.012 266.521 244.581 263.099 244.52 259.446C244.513 259.029 244.364 258.681 244.134 258.41C243.887 258.119 243.543 257.92 243.173 257.833C242.793 257.744 242.392 257.775 242.05 257.93C241.74 258.071 241.475 258.31 241.309 258.66C240.89 259.211 240.472 259.754 240.053 260.282C236.681 264.448 233.416 267.561 228.347 268.677C225.596 269.283 222.849 269.014 220.328 268.09C217.631 267.1 215.191 265.36 213.28 263.134C212.416 262.127 211.397 261.717 210.399 261.71C209.269 261.702 208.152 262.227 207.311 263.067C206.484 263.893 205.93 265.014 205.88 266.188C205.836 267.218 206.171 268.293 207.064 269.253C210.007 272.415 213.82 274.731 217.945 275.927ZM218.069 223.752C213.959 226.252 207.696 232.082 212.118 238.28C217.322 243.745 224.816 237.479 228.509 234.645C231.933 232.449 235.78 238.097 232.603 240.662C205.92 260.43 195.091 224.406 215.99 220.813C218.291 220.417 219.146 222.979 218.069 223.752ZM256.518 212.752C257.839 211.906 259.394 211.616 261.116 212.4C262.461 213.013 264.822 215.055 266.465 217.738C267.589 219.574 268.386 221.728 268.22 223.973C268.181 224.493 268.373 224.878 268.677 225.162C268.917 225.386 269.263 225.551 269.67 225.603C270.015 225.646 270.402 225.607 270.716 225.509C271.313 225.322 271.63 224.934 271.749 224.617C272.899 221.56 272.404 218.149 271.114 215.072C269.375 210.919 266.215 207.44 264.145 206.318C260.603 204.399 256.424 204.31 252.877 206.266C249.858 207.931 247.97 210.618 246.092 213.358C245.693 213.94 245.297 214.519 244.887 215.086C244.066 216.225 243.985 217.353 244.303 218.321C244.655 219.393 245.552 220.298 246.675 220.772C247.712 221.21 248.917 221.271 249.982 220.822C250.882 220.442 251.708 219.701 252.231 218.445C253.112 216.328 254.578 213.993 256.518 212.752ZM189.424 217.46C190.329 217.932 191.037 218.074 192.041 217.773C192.596 217.606 193.144 217.286 193.573 216.857C193.999 216.431 194.306 215.901 194.425 215.314C194.719 213.864 195.512 212.506 196.642 211.621C197.608 210.865 198.827 210.464 200.179 210.69C201.638 210.934 203.028 211.871 203.985 212.974C204.305 213.344 204.556 213.763 204.808 214.18C205.28 214.959 205.738 215.683 206.388 216.256C206.635 216.473 207.007 216.624 207.367 216.624C207.513 216.624 207.661 216.6 207.803 216.556C209.255 215.098 209.534 213.991 209.488 212.894C209.438 211.743 208.985 210.578 208.252 209.491C206.534 206.941 203.27 204.85 201.068 204.376C198.053 203.728 195.058 204.507 192.656 206.192C190.186 207.926 188.355 210.619 187.784 213.653C187.647 214.384 187.705 215.173 187.983 215.857C188.255 216.525 188.729 217.097 189.424 217.46ZM249.867 185.564C251.677 187.328 253.819 187.602 255.986 187.844C257.19 187.981 258.152 188.091 259.097 188.304C261.697 188.892 264.267 189.776 266.611 191.05C269.062 192.381 271.733 193.987 273.655 196.045C274.112 196.534 274.542 197.047 274.973 197.562C275.367 198.032 275.745 198.484 276.145 198.92C276.603 199.42 277.039 199.945 277.472 200.468C277.739 200.909 277.792 201.018 277.846 201.131C277.928 201.301 278.022 201.491 278.13 201.695C278.277 201.974 278.451 202.28 278.632 202.557C278.933 203.064 279.095 203.203 279.235 203.266C279.467 203.369 279.686 203.42 279.9 203.392C280.1 203.367 280.288 203.27 280.474 203.113C281.404 202.327 281.678 201.038 281.65 199.669C281.607 197.593 280.841 195.294 280.136 193.88C278.495 190.596 276.22 187.182 273.483 184.731C270.362 181.933 266.946 179.815 263.022 178.355C260.584 177.448 257.761 176.615 255.105 176.721C253.193 176.796 251.368 177.365 249.861 178.785C248.935 179.657 248.491 180.897 248.491 182.136C248.491 183.4 248.952 184.671 249.867 185.564ZM185.743 201.721C185.859 201.91 186.018 202.04 186.195 202.118C186.381 202.2 186.588 202.223 186.787 202.19C186.986 202.157 187.174 202.066 187.324 201.929C187.467 201.798 187.576 201.623 187.625 201.409C188.826 196.128 191.159 192.199 196.139 189.665C198.589 188.419 201.406 187.627 204.072 186.996C204.847 186.812 205.666 186.693 206.49 186.573C209.075 186.196 211.678 185.763 213.362 183.673C214.378 182.414 214.803 180.803 214.563 179.331C214.336 177.944 213.526 176.673 212.054 175.911C208.39 174.015 203.836 175.875 200.135 177.46C199.861 177.578 199.591 177.693 199.328 177.804C195.708 179.333 192.408 181.35 189.695 184.236C187.542 186.525 185.548 189.909 184.744 193.391C184.076 196.287 184.233 199.244 185.743 201.721Z" fill="black"/>
<path fill-rule="evenodd" clip-rule="evenodd" d="M206.541 284.724C211.61 280.205 217.292 271.119 224.574 278.308C226.375 280.339 227.105 284.892 229.858 285.785C233.516 286.973 237.141 283.1 238.388 280.126C243.488 263.603 222.405 259.071 210.395 261.74C204.527 264.152 200.205 273.857 199.944 278.923C199.775 282.327 202.654 287.332 206.541 284.724ZM168.298 259.255C168.348 259.036 168.417 258.838 168.5 258.657C170.742 257.809 172.516 258.674 173.612 260.29C173.576 260.691 173.456 261.097 173.381 261.496C174.227 263.279 174.99 265.486 176.136 267.026C176.362 267.044 176.597 267.02 176.823 266.955C195.826 268.94 186.548 249.044 205.822 244.102C220.722 241.643 247.65 244.46 254.679 259.979C260.222 284.765 288.408 267.494 297.662 254.603C307.536 242.872 313.921 228.536 320.077 214.625C321.378 211.682 325.438 213.787 324.996 216.611C330.686 228.033 330.497 241.753 331.906 254.267C334.303 279.231 336.639 314.241 313.459 329.484C283.257 363.644 207.839 375.698 173.005 344.312C160.947 318.37 162.433 286.721 168.298 259.255Z" fill="black"/>
<path fill-rule="evenodd" clip-rule="evenodd" d="M188.135 183.248C175.359 183.248 168.069 185.996 165.397 186.211L165.316 186.217C164.205 186.288 163.208 186.381 162.163 186.785C158.317 188.268 157.69 192.304 159.934 194.847C160.092 200.111 159.4 206.261 160.587 211.541C162.051 233.802 172.513 237.559 178.46 238.93C181.446 239.618 184.985 239.892 188.156 239.165C193.566 238.964 198.915 237.269 203.491 234.318C209.865 230.204 214.598 223.882 216.134 216.379C216.863 212.803 217.202 209.08 216.806 205.445L216.748 204.944C218.82 203.952 221.22 203.765 223.694 203.677C224.877 203.635 226.042 203.597 227.174 203.648C228.28 203.771 229.373 203.936 230.47 204.16C231.667 204.522 232.798 205.118 233.842 206.063L233.914 207.443C234.11 210.888 234.563 214.344 235.26 217.725C236.289 222.712 237.945 227.476 241.469 231.014C242.662 232.797 244.139 234.388 245.931 235.767C252.441 240.782 261.286 242.624 269.403 241.93C285.883 240.523 295.409 227.432 297.604 221.837L297.735 221.498C299.321 217.338 300.585 211.941 305.596 211.047L306.662 210.855C308.948 210.426 311.058 209.828 312.399 207.595C312.987 206.621 313.289 205.53 313.363 204.419C314.145 204.48 314.926 204.537 315.705 204.593C321.915 205.907 359.16 207.021 362.133 207.021C362.133 207.021 367.847 209.428 370.26 207.563C371.932 206.266 372.483 204.538 371.562 202.58C370.173 199.634 363.765 197.862 360.919 197.301C360.919 197.301 314.999 197.683 311.694 197.056C309.649 194.946 305.991 195.234 302.935 194.901C300.404 193.095 296.865 191.886 294.069 191.077C293.499 190.861 292.935 190.652 292.386 190.455C287.26 188.629 281.932 187.661 276.523 187.141C270.945 186.611 265.351 186.851 259.805 187.611C257.468 187.929 255.153 188.339 252.855 188.875C248.738 189.418 244.646 190.313 240.528 191.373L239.705 191.588C235.369 192.725 230.913 193.709 226.424 192.938C222.77 192.314 219.256 190.907 215.887 189.385L215.448 189.186C208.04 185.802 196.47 183.248 188.135 183.248ZM253.3 195.624C256.034 195.022 257.201 199.239 254.459 199.842C252.517 200.27 250.871 201.249 249.759 202.909L249.642 203.09C248.15 205.466 244.378 203.273 245.88 200.881C247.57 198.191 250.197 196.306 253.3 195.624ZM173.241 193.009C174.204 192.33 175.662 192.834 176.222 193.793C176.837 194.85 176.434 196.027 175.532 196.719L175.44 196.786C174.612 197.37 173.806 198.417 173.704 199.489L173.696 199.623C173.587 202.429 169.229 202.443 169.338 199.623C169.444 196.864 171.04 194.559 173.241 193.009Z" fill="black"/>
<path fill-rule="evenodd" clip-rule="evenodd" d="M850.772 418.148C846.029 399.738 841.664 391.932 833.237 385.534C825.354 379.549 813.845 374.522 797.059 370.85C779.567 367.791 779.071 358.698 774.69 344.082C773.411 339.688 767.071 338.519 764.336 341.686C763.947 341.27 763.548 340.888 763.132 340.543C763.505 338.448 760.451 332.442 760.553 330.437C761.616 309.516 754.78 299.009 737.703 295.104C733.991 294.254 708.772 293.754 705.152 294.755C689.327 299.133 673.75 313.032 676.135 329.775C671.165 336.27 666.304 340.235 658.637 342.328C641.582 344.494 624.526 346.421 607.466 348.071C574.067 353.311 542.757 370.996 521.358 396.789C519.384 399.17 518.812 402.401 520.554 404.94C519.189 410.788 511.506 424.973 517.555 428.982C507.611 452.765 484.744 498.735 484.701 511.868C484.52 567.039 490.478 638.851 544.894 669.383C547.074 671.526 547.386 673.901 548.331 677.085C550.721 687.13 559.408 694.308 568.92 693.725C615.77 694.767 661.146 689.046 707.995 688.771C728.655 688.646 753.501 691.734 771.447 693.79C789.398 695.847 807.511 694.028 824.739 688.771C826.19 691.059 829.125 692.392 832.104 691.734C849.957 688.188 864.396 677.177 876.973 665.147C880.82 658.152 895.825 638.225 889.857 631.284C895.269 608.415 894.988 583.841 885.379 562.058C886.739 558.069 884.257 553.681 885.379 549.557C886.188 546.573 888.266 545.342 889.312 542.384C890.78 538.228 889.183 532.653 887.526 528.411C886.847 526.295 888.773 524.017 889.312 521.864C891.854 511.686 886.032 512.583 881.84 505.78C881.899 505.759 882.989 500.903 882.983 500.927C883.625 497.46 882.018 493.018 880.615 490.124C879.665 488.167 877.636 486.943 875.613 487.168C877.647 480.261 880.221 474.514 882.983 467.859C887.877 456.129 894.066 444.897 901.091 434.28C903.967 429.933 900.103 424.896 895.452 424.6C880.383 423.642 865.486 421.472 850.772 418.148Z" fill="white"/>
<path fill-rule="evenodd" clip-rule="evenodd" d="M806.804 506.851C800.783 504.487 794.292 503.18 787.774 502.673C791.281 502.057 794.804 501.464 798.355 501.159C800.831 500.946 803.124 500.968 804.986 502.848C806.227 504.1 806.809 505.712 807.629 507.193C807.36 507.074 807.085 506.96 806.804 506.851ZM871.48 484.748C861.612 485.25 851.733 487.597 842.808 491.85C839.156 493.593 835.843 496.11 834.877 500.249C834.386 502.363 834.505 504.547 834.764 506.682C834.963 508.299 835.012 510.364 836.415 511.458C836.657 511.643 836.911 511.785 837.175 511.888C833.884 513.375 830.749 515.162 827.96 517.001C825.413 518.685 822.796 521.281 821.62 524.201C821.523 523.872 821.426 523.559 821.329 523.267C819.327 517.341 816.241 512.488 811.379 509.225C812.237 508.839 812.831 507.924 812.556 506.661C811.401 501.382 806.529 496.796 801.025 497.123C794.999 497.477 788.529 499.672 783.08 502.444C781.094 502.401 779.109 502.428 777.15 502.515C776.816 502.526 776.832 502.984 777.15 503.022C778.742 503.224 780.333 503.447 781.92 503.708C785.697 504.313 789.463 505.08 793.148 506.033C797.567 507.178 802.142 508.326 806.27 510.325C814.282 514.209 819.241 524.363 818.226 533.198C818.059 534.645 817.498 539.022 815.485 538.574C813.791 538.191 813.117 534.645 812.523 533.333C810.932 529.846 808.067 527.569 804.635 526.031C800.599 524.212 796.283 522.986 792.101 521.562C789.738 520.752 787.369 519.937 784.995 519.133C782.567 518.302 780.258 517.152 777.673 517.735C776.114 518.086 775.931 519.948 776.81 521.016C778.143 522.646 780.123 523.127 782.044 523.796C784.58 524.676 787.11 525.561 789.646 526.441C793.558 527.806 797.659 528.95 801.473 530.618L801.354 530.894C801.042 530.807 800.675 531.115 800.739 531.498C801.306 535.022 802.104 539.092 801.22 542.622C800.524 545.423 798.069 548.521 794.88 547.701C795.382 547.242 795.565 546.454 795.23 545.725C793.963 543.021 777.42 532.356 775.941 536.318C775.893 536.458 776.044 536.561 776.168 536.539C777.425 536.28 779.53 538.423 780.538 539.103C781.99 540.085 783.463 541.046 784.903 542.05C786.474 543.151 788.011 544.306 789.506 545.499C790.682 546.438 791.572 547.409 792.921 547.884C792.214 548.224 791.653 548.85 791.41 549.649C790.801 551.738 789.63 553.508 787.585 554.426C785.448 555.387 783.037 554.782 780.781 555.014C777.711 555.327 775.035 556.785 772.796 558.873C768.102 563.261 765.744 570.996 759.172 573.068C755.25 574.31 750.895 573.527 746.919 572.966C742.484 572.34 738.162 571.843 733.694 572.496C729.416 573.128 725.375 574.606 721.463 576.415C717.799 578.109 713.753 580.025 710.504 582.551C709.835 580.49 709.156 578.444 708.643 576.339C707.44 571.357 706.787 566.278 706.625 561.156C706.479 556.283 706.755 551.387 707.17 546.535C707.38 544.112 707.704 541.699 707.909 539.276C707.963 538.666 708.076 538.013 708.157 537.359C713.958 533.932 720.055 531.304 726.2 528.605C726.216 528.6 726.232 528.589 726.249 528.583C726.437 528.497 726.626 528.416 726.815 528.33C726.81 528.319 726.804 528.308 726.794 528.297C727.495 527.871 727.986 527.299 728.277 526.657C737.137 520.779 744.539 512.755 750.059 503.397C752.368 499.476 754.597 495.407 757.624 491.971C760.845 488.305 764.67 486.126 769.407 484.993C774.943 483.665 780.646 482.869 786.317 482.417C789.414 482.172 792.878 481.791 796.25 481.808C798.603 481.823 800.907 482.025 803.016 482.607C806.146 483.468 807.975 485.849 809.939 488.256C811.816 490.566 813.683 492.88 815.437 495.288C817.099 497.569 818.669 499.928 820.028 502.401C820.843 503.882 821.599 505.408 822.235 506.981C822.462 507.537 822.753 508.169 822.888 508.746C823.028 509.329 822.775 509.945 823.428 509.945C820.735 509.982 820.762 514.29 823.438 514.133C833.922 513.523 818.906 493.044 816.71 490.189C813.602 486.148 810.397 480.875 805.423 478.997C805.353 478.969 805.277 478.943 805.207 478.92C806.653 477.547 807.797 475.903 808.892 474.231C810.02 472.51 811.363 470.538 811.73 468.496C811.967 467.194 810.349 466.453 809.583 467.591C808.466 469.252 807.926 471.355 807.095 473.18C806.243 475.031 805.212 476.78 804.392 478.648C802.428 478.043 800.308 477.766 798.144 477.673C800.874 473.981 805.531 466.856 806.092 465.941C808.671 461.704 811.126 457.336 813.473 452.962C816.009 448.223 818.183 443.288 820.611 438.496C821.987 435.778 823.374 433.038 824.906 430.402C825.429 429.498 825.996 428.594 826.638 427.771C826.767 427.608 826.924 427.472 827.07 427.319C827.237 427.227 827.415 427.123 827.512 427.069C828.392 426.563 828.704 425.386 829.325 424.639C830.312 423.436 831.478 423.295 832.972 423.277C836.15 423.245 839.339 423.37 842.512 423.457C847.179 423.588 851.835 423.773 856.497 424.018C857.905 424.095 859.308 424.171 860.722 424.258C867.493 424.662 874.264 425.189 881.02 425.838C886.998 426.409 892.976 427.342 898.954 427.788C890.856 447.042 881.877 465.947 871.707 484.193C871.604 484.378 871.529 484.563 871.48 484.748ZM826.541 534.348C825.235 534.952 823.967 535.697 822.786 536.545C822.985 535.222 823.034 533.83 822.98 532.426C823.951 533.473 825.197 534.073 826.541 534.348ZM882.304 501.23C882.212 501.241 882.126 501.289 882.083 501.382C880.275 505.113 881.03 509.279 883.982 512.204C885.53 513.73 888.897 515.451 888.789 517.956C888.697 519.98 886.491 521.68 885.552 523.353C884.672 524.913 884.349 526.624 885.05 528.308C885.946 530.473 888.455 531.331 889.318 533.457C890.408 536.156 888.638 539.405 887.397 541.753C886.242 543.928 884.748 546.098 883.761 548.397C877.124 551.835 871.184 557.108 866.079 562.462C860.49 568.319 855.693 575.206 846.817 575.033C845.932 575.017 845.258 575.486 844.853 576.134C842.382 576.247 839.906 576.296 837.434 576.307C833.091 576.328 828.748 576.285 824.41 576.15C824.102 575.098 824.329 573.673 824.312 572.782C824.259 569.922 824.232 567.066 824.107 564.211C824.075 563.412 824.043 562.614 824.01 561.82C825.575 564.643 828.624 565.928 832.093 565.733C837.677 565.409 843.294 564.492 848.824 563.671C851.738 563.24 854.646 562.749 857.544 562.225C859.928 561.804 863.295 561.912 864.957 559.996C865.351 559.553 865.372 558.733 864.757 558.436C863.106 557.626 862.07 558.074 860.258 558.425C858.045 558.857 855.833 559.262 853.61 559.645C849.348 560.385 845.075 561.07 840.79 561.674C838.352 562.02 835.907 562.355 833.463 562.624C831.332 562.851 828.926 563.164 827.204 561.556C823.741 558.312 825.683 552.871 827.874 549.59C827.917 549.525 827.917 549.466 827.901 549.412C829.972 548.926 832.033 548.359 834.089 547.96C838.049 547.199 842.031 546.557 846.024 545.984C854.22 544.813 862.47 544.041 870.714 543.264C872.754 543.064 872.775 539.853 870.714 540.042C858.871 541.127 846.974 542.158 835.292 544.435C832.368 545.002 829.46 545.644 826.568 546.373C825.203 546.708 823.741 547.237 822.305 547.253C822.219 547.253 822.133 547.253 822.046 547.247C819.241 547.161 818.836 544.759 820.374 542.762C820.568 542.514 820.762 542.271 820.962 542.034C823.687 538.79 827.075 536.62 830.571 534.38C834.483 533.846 838.384 532.658 842.22 531.784C851.679 529.631 861.137 527.472 870.606 525.318C872.457 524.897 871.669 522.042 869.813 522.463C862.632 524.087 855.445 525.718 848.258 527.348L837.742 529.733C835.643 530.208 833.021 531.158 830.55 531.503C829.33 531.671 828.149 531.692 827.08 531.444C823.638 530.624 823.46 526.317 824.949 523.758C826.611 520.881 829.757 519.084 832.551 517.454C837.391 514.628 842.539 512.597 847.567 510.255C848.463 510.059 849.353 509.862 850.249 509.666C855.439 508.523 861.374 507.961 866.257 505.865C867.725 505.244 866.921 502.934 865.475 502.967C861.682 503.049 857.716 504.4 854.01 505.2C849.995 506.072 845.981 506.938 841.967 507.804C841.567 507.891 839.183 508.653 838.821 508.484C838.594 508.375 838.514 507.581 838.433 507.057C838.19 505.336 838.012 503.529 838.276 501.801C838.864 497.929 842.091 496.11 845.36 494.623C852.628 491.317 860.603 489.248 868.54 488.419C870.369 488.228 872.198 488.109 874.038 488.048C876.196 487.983 877.976 487.602 879.072 489.732C880.793 493.087 881.743 497.401 882.304 501.23ZM872.209 622.875C870.622 617.391 871.054 611.54 869.969 605.943C869.408 603.061 868.642 600.195 867.806 597.378C867.137 595.106 866.009 592.682 865.885 590.307C865.874 590.151 866.063 590.059 866.193 590.135C868.426 591.414 870.142 594.183 871.416 596.358C872.942 598.959 874.108 601.679 875.052 604.545C876.924 610.245 878.462 617.127 876.045 622.875C875.327 624.586 872.802 624.931 872.209 622.875ZM823.239 550.243C824.577 550.113 825.915 549.854 827.253 549.557C825.759 551.02 824.377 552.774 823.606 554.728C823.487 553.228 823.336 551.738 823.136 550.248C823.169 550.248 823.206 550.248 823.239 550.243ZM810.37 664.391C808.007 662.739 806.286 660.435 804.284 658.4C802.315 656.403 805.396 653.321 807.365 655.318C809.075 657.056 810.554 659.22 812.566 660.629C813.538 661.304 813.985 662.523 813.349 663.608C812.788 664.564 811.336 665.06 810.37 664.391ZM797.2 601.021C801.511 599.154 805.752 597.124 810.262 595.78C812.96 594.976 814.099 599.18 811.423 599.979C807.268 601.221 803.367 603.067 799.401 604.783C796.849 605.884 794.637 602.127 797.2 601.021ZM751.683 599.715C750.626 597.113 754.845 595.991 755.881 598.554C757.079 601.507 758.449 604.389 759.642 607.341C760.694 609.943 756.485 611.065 755.444 608.496C754.246 605.544 752.876 602.667 751.683 599.715ZM706.755 651.686C706.048 652.619 704.882 653.132 703.776 652.468C702.848 651.912 702.282 650.433 702.994 649.489C705.066 646.72 707.17 643.984 709.603 641.517C711.573 639.515 714.654 642.597 712.684 644.599C710.51 646.801 708.605 649.214 706.755 651.686ZM700.328 360.078C702.325 361.445 704.078 363.104 705.783 364.811C707.769 366.797 704.688 369.877 702.708 367.892C701.267 366.453 699.816 364.992 698.132 363.841C697.156 363.175 696.719 361.937 697.35 360.86C697.911 359.895 699.357 359.415 700.328 360.078ZM765.695 430.196C764.562 432.46 763.548 434.68 763.483 437.254C763.413 440.057 759.059 440.059 759.129 437.254C759.21 433.886 760.451 430.965 761.935 427.997C763.186 425.484 766.942 427.694 765.695 430.196ZM789.679 373.882C792.02 372.321 794.195 376.097 791.875 377.645C789.997 378.899 788.114 380.154 786.231 381.409C783.889 382.971 781.715 379.195 784.035 377.647C785.912 376.392 787.796 375.137 789.679 373.882ZM685.653 472.342C685.253 475.112 681.056 473.927 681.455 471.185C682.065 466.946 682.815 462.763 683.964 458.635C684.714 455.933 688.911 457.088 688.162 459.793C687.012 463.922 686.262 468.104 685.653 472.342ZM670.383 522.252C667.583 522.193 667.583 517.837 670.383 517.897C672.924 517.951 675.417 518.62 677.861 519.23C680.586 519.91 679.421 524.115 676.707 523.434C674.635 522.916 672.531 522.301 670.383 522.252ZM664.75 622.799C663.784 623.269 662.797 623.69 661.826 624.138C659.878 625.028 657.93 625.919 655.983 626.815C651.925 628.677 647.868 630.55 643.816 632.428C635.706 636.185 627.537 639.806 619.406 643.52C611.113 647.314 602.847 651.151 594.587 655.01C590.697 656.829 586.779 658.578 582.862 660.348C579.517 661.865 575.384 664.51 571.71 664.758C571.521 664.769 571.461 664.531 571.569 664.407C572.956 662.831 575.168 661.914 576.992 660.883C578.853 659.836 580.753 658.848 582.641 657.849C586.58 655.761 590.519 653.688 594.495 651.675C602.448 647.648 610.417 643.654 618.386 639.66C626.512 635.585 634.627 631.489 642.828 627.56C646.686 625.708 650.555 623.868 654.418 622.027C656.511 621.034 658.61 620.036 660.704 619.048C661.61 618.616 662.506 618.152 663.428 617.769C664.659 617.262 665.597 617.364 666.865 617.051C668.932 616.544 669.827 619.172 668.241 620.322C666.93 621.261 666.245 622.071 664.75 622.799ZM635.679 667.478C635.231 666.393 636.17 665.071 637.201 664.801C638.436 664.472 639.429 665.222 639.877 666.318C641.075 669.227 642.774 671.893 644.959 674.144C646.918 676.157 643.843 679.239 641.884 677.226C639.138 674.403 637.168 671.105 635.679 667.478ZM614.297 597.54C612.311 595.553 615.386 592.472 617.372 594.458L623.016 600.103C625.001 602.09 621.92 605.172 619.935 603.185L614.297 597.54ZM556.397 588.332C552.34 589.525 547.608 590.615 544.84 594.08C544.705 594.253 544.478 594.031 544.559 593.864C548.099 586.518 558.259 583.938 565.289 581.369C570.264 579.545 575.362 578.039 580.51 576.69C579.997 570.812 581.416 564.519 581.907 558.674C582.436 552.434 582.862 546.173 583.083 539.912C583.305 533.527 583.359 527.099 583.154 520.714C582.943 514.347 582.118 508.061 581.756 501.718C581.718 501.104 582.571 501.075 582.76 501.582C584.896 507.468 585.808 513.988 586.504 520.196C587.222 526.586 587.459 532.966 587.367 539.394C587.27 546.006 586.887 552.602 586.359 559.192C586.11 562.317 585.819 565.436 585.544 568.561C585.339 570.942 585.242 573.306 584.756 575.61C587.858 574.849 590.966 574.132 594.069 573.43C603.959 571.195 613.887 569.123 623.733 566.71C628.568 565.523 633.332 564.103 638.14 562.846C642.672 561.658 647.458 560.217 652.109 559.688C653.765 559.499 653.975 561.772 652.88 562.543C649.098 565.199 644.075 567.05 639.71 568.534C635.328 570.03 630.769 571.104 626.28 572.205C616.913 574.515 607.455 576.398 598.013 578.363C588.581 580.322 579.134 582.271 569.81 584.689C565.321 585.854 560.848 587.026 556.397 588.332ZM534.162 471.762C531.74 473.186 529.549 469.419 531.966 467.999C535.128 466.143 538.495 464.748 541.894 463.388C544.5 462.344 545.617 466.56 543.049 467.589C539.995 468.812 537.006 470.094 534.162 471.762ZM525.384 633.642C522.956 635.056 520.765 631.289 523.188 629.88C526.592 627.905 530.32 626.588 533.849 624.861C536.358 623.63 538.559 627.392 536.045 628.623C532.516 630.35 528.788 631.667 525.384 633.642ZM521.434 541.753C523.786 543.987 526.921 545.04 529.883 546.211C532.463 547.231 531.329 551.447 528.723 550.416C525.038 548.953 521.283 547.614 518.359 544.835C516.319 542.897 519.405 539.821 521.434 541.753ZM547.441 416.956C550.02 417.97 548.892 422.183 546.281 421.158C543.389 420.022 540.394 419.157 537.502 418.021C534.918 417.007 536.051 412.795 538.662 413.819C541.554 414.955 544.543 415.82 547.441 416.956ZM593.308 367.388C596.054 366.925 597.225 371.124 594.468 371.59C591.047 372.167 587.675 372.844 584.432 374.1C581.816 375.114 580.688 370.899 583.278 369.898C586.52 368.642 589.887 367.966 593.308 367.388ZM608.464 488.075C605.95 486.837 608.157 483.081 610.66 484.314C613.304 485.613 616.039 486.617 618.921 487.231C621.667 487.816 620.496 492.016 617.761 491.433C614.518 490.741 611.432 489.537 608.464 488.075ZM622.778 420.093C625.492 419.351 626.636 423.555 623.938 424.295C619.19 425.597 614.297 426.274 609.516 427.433C606.786 428.093 605.637 423.89 608.356 423.231C613.142 422.072 618.03 421.396 622.778 420.093ZM683.505 398.76C686.262 399.271 685.086 403.469 682.345 402.962C679.432 402.423 676.475 402.414 673.518 402.412C670.712 402.411 670.718 398.054 673.518 398.055C676.879 398.057 680.192 398.147 683.505 398.76ZM881.554 421.524C874.442 420.844 867.315 420.299 860.182 419.891C859.847 419.873 859.524 419.852 859.189 419.835C859.151 419.759 859.103 419.688 859.054 419.612C856.723 416.192 855.008 412.771 853.524 408.904C852.105 405.222 850.724 401.426 848.538 398.104C846.04 394.319 842.673 391.357 838.978 388.79C836.738 390.296 834.661 392.061 832.762 393.932C830.76 395.899 827.679 392.819 829.681 390.851C831.37 389.188 833.172 387.653 835.082 386.266C832.881 384.927 830.631 383.669 828.44 382.417C820.228 377.728 811.816 373.392 803.238 369.428C799.245 367.581 795.209 365.941 791.141 364.28C788.95 363.387 786.792 362.237 784.601 361.203C784.763 359.656 784.299 357.924 783.112 356.905C782.238 356.159 781.558 355.881 780.512 355.354C780.274 355.271 780.134 355.222 780.069 355.195C780.118 355.206 780.258 355.249 780.495 355.326C781.051 355.582 781.094 355.505 780.625 355.102C780.598 354.221 778.86 352.358 778.467 351.448C777.08 348.327 776.654 345.026 774.609 342.183C771.798 338.267 767.071 336.786 762.668 338.114C762.21 333.403 762.091 328.485 760.316 324.28C760.267 324.166 760.111 324.117 760.041 324.242C758.19 327.396 758.028 330.909 757.888 334.547C757.753 337.962 757.883 341.453 758.33 344.846C758.044 345.064 757.759 345.271 757.462 345.473C756.054 346.398 754.543 347.112 752.951 347.641C749.924 348.643 746.752 349.078 743.579 349.231C735.389 349.623 726.945 348.795 718.889 347.39C710.742 345.968 698.251 343.833 691 339.754C686.214 337.064 681.8 333.779 677.327 330.598C678.951 325.369 679.361 319.749 677.732 315.331C677.532 314.803 676.707 314.705 676.55 315.331C675.525 319.547 675.228 323.784 673.863 327.951C673.842 328.011 673.82 328.077 673.799 328.136C673.378 327.848 672.952 327.564 672.525 327.281C671.549 326.633 670.211 327.118 669.622 328.044C660.223 342.864 645.337 343.713 629.706 346.361C612.597 349.258 595.401 352.385 578.956 358.054C563.222 363.48 548.191 371.377 536.283 383.175C533.585 385.846 531.065 388.692 528.686 391.663C530.99 391.953 533.272 392.405 535.527 393.114C538.193 393.953 537.049 398.158 534.367 397.315C531.47 396.405 528.54 395.954 525.583 395.73C517.49 406.807 511.183 419.368 505.722 431.731C495.259 455.435 488.447 480.679 485.313 506.38C487.034 505.348 488.786 504.365 490.581 503.45C493.077 502.18 495.277 505.941 492.779 507.213C490.006 508.624 487.311 510.181 484.701 511.868C483.561 523.116 483.119 534.44 483.386 545.747C484.023 572.696 487.659 600.433 495.883 626.146C499.917 638.77 505.264 651.286 513.227 661.951C516.826 666.782 520.921 671.138 525.745 674.77C528.081 676.535 530.552 678.111 533.159 679.439C536.515 681.16 540.89 681.727 543.788 684.161C544.743 684.96 545.477 686.018 546.032 687.211C545.709 689.478 545.671 691.745 546.291 694.012C546.485 694.719 547.02 695.296 547.678 695.577C547.689 695.771 547.689 695.96 547.689 696.149C547.689 696.235 547.818 696.257 547.84 696.17C547.867 696.003 547.894 695.83 547.921 695.658C548.131 695.728 548.352 695.76 548.584 695.76C556.85 695.793 565.127 695.593 573.409 695.312C572.767 693.348 572.077 691.405 571.408 689.44C570.506 686.774 574.71 685.64 575.605 688.28C576.388 690.573 577.202 692.851 577.925 695.15C586.796 694.821 595.666 694.427 604.515 694.13C623.345 693.504 642.165 693.299 660.995 692.9C690.244 692.279 719.704 691.011 748.991 692.252C750.005 690.104 751.138 687.999 752.217 685.878C753.485 683.373 757.241 685.581 755.973 688.08C755.228 689.553 754.451 691.011 753.717 692.479C759.652 692.786 765.577 693.196 771.49 693.752C781.58 694.697 791.578 696.381 801.657 697.428C811.903 698.497 821.933 698.302 832.098 696.613C833.927 696.305 835.006 695.199 835.454 693.828C835.47 693.823 835.481 693.812 835.492 693.796C836.01 693.186 836.501 692.678 837.008 692.236C837.612 691.847 838.265 691.513 839.031 691.221C840.467 690.676 841.956 690.341 843.472 690.12C845.134 689.866 846.823 689.845 848.49 689.64C849.893 689.462 851.263 689.192 852.634 688.868C855.099 688.28 857.441 687.508 859.772 686.493C861.801 685.602 863.635 684.329 865.367 682.942C868.95 680.319 872.052 676.978 874.761 673.502C876.342 671.467 877.825 669.362 879.174 667.165C881.527 663.365 883.528 659.415 885.557 655.437C886.291 654.255 886.96 653.046 887.575 651.815C883.615 650.644 879.622 649.694 875.424 649.629C872.624 649.581 872.624 645.225 875.424 645.268C880.237 645.349 884.791 646.472 889.312 647.81C889.528 647.227 889.744 646.634 889.938 646.04C890.478 644.793 890.92 643.514 891.293 642.213C891.508 641.625 891.73 641.037 891.945 640.448C892.436 638.414 892.927 636.373 893.418 634.328C894.406 631.062 895.183 627.743 895.755 624.381C896.235 622.173 896.607 619.944 896.855 617.688C897.616 612.226 898.237 606.775 898.28 601.253C898.215 597.847 897.999 594.447 897.627 591.068C897.471 588.769 897.206 586.481 896.845 584.208C896.375 580.83 895.911 577.489 895.134 574.153C894.552 571.902 893.969 569.646 893.386 567.39C891.935 562.689 890.219 558.08 888.244 553.578C888.136 553.292 887.586 552.672 887.251 552.666C887.003 552.661 886.652 552.893 886.771 553.195C886.782 553.222 886.793 553.255 886.804 553.282C886.69 553.028 886.577 552.764 886.464 552.51C886.367 552.272 885.983 551.792 885.692 551.797C885.676 551.797 885.66 551.797 885.638 551.803C885.714 551.749 885.784 551.679 885.854 551.592C887.807 549.282 889.075 546.233 890.478 543.556C891.638 541.343 892.728 539.011 893.046 536.512C893.321 534.321 892.949 532.157 891.568 530.381C890.003 528.357 887.052 527.412 888.692 524.492C890.553 521.168 893.289 518.291 890.564 514.514C889.178 512.591 886.976 511.535 885.341 509.862C883.464 507.929 882.574 505.342 882.622 502.7C882.735 502.765 882.886 502.734 882.94 502.569C884.521 497.798 883.377 492.559 881.764 487.912C880.879 485.391 879.012 484.699 876.843 484.574C886.248 466.192 895.048 447.515 902.893 428.408C903.152 427.782 903.411 427.156 903.665 426.529C904.048 425.592 903.238 424.345 902.31 424.138C895.528 422.651 888.46 422.177 881.554 421.524Z" fill="black"/>
<path fill-rule="evenodd" clip-rule="evenodd" d="M803.092 193.851C801.797 177.105 803.798 159.554 797.345 143.638C786.096 117.23 754.553 108.425 730.095 98.3714C720.297 95.4741 687.33 95.0693 675.859 91.2356C649.896 82.5577 643.691 72.2186 623.064 88.7409C619.579 91.5632 617.399 94.631 615.813 98.822L615.877 98.8398C615.424 100.588 615.91 102.331 616.935 103.662C607.989 112.812 604.245 126.529 608.836 138.708C623.814 170.401 623.107 187.538 618.284 221.61C611.982 253.418 626.382 265.037 650.231 282.344C649.259 284.228 649.054 286.732 650.322 288.394C677.899 327.174 729.901 345.689 774.452 326.006C792.538 317.952 800.61 298.68 805.217 281.29C810.586 261.819 812.237 241.302 807.867 221.468C806.102 212.294 803.809 203.187 803.092 193.851Z" fill="white"/>
<path fill-rule="evenodd" clip-rule="evenodd" d="M644.015 8.32803C647.36 7.82505 649.886 9.90329 651.089 12.8326L651.154 12.9903C651.542 13.9871 651.968 14.9565 652.432 15.9097C660.812 11.7975 672.763 12.8542 678.066 21.182C681.849 27.1298 679.539 34.1886 678.115 40.4959L677.176 44.6513C678.989 45.8041 680.349 47.8675 680.289 50.0043L680.279 50.169L679.901 55.9641C681.11 54.7389 682.21 53.4041 683.198 51.9825C683.877 50.7351 684.611 49.5099 685.399 48.3225C690.045 41.3346 700.469 47.4077 696.638 54.8911C695.899 56.3343 695.073 57.7015 694.188 59.0195C693.185 60.9641 692.365 62.9628 691.733 65.0165C693.546 65.8061 694.938 67.5602 695.084 70.2071C695.429 76.3892 692.181 81.5468 687.023 84.7874C685.507 85.7406 683.937 85.9262 682.518 85.5722C682.264 85.9095 682.016 86.2474 681.779 86.5906C683.834 88.2627 685.69 90.1691 687.282 92.2821C692.084 91.5632 696.913 91.2253 701.742 91.2145C707.639 88.3226 714.708 88.3826 721.047 89.4663C725.132 90.1637 729.049 91.5195 733.069 92.4948C737.299 93.5186 741.599 93.5564 745.883 94.2538C751.284 95.1308 756.021 97.6255 758.994 101.607C762.269 101.705 765.706 103.045 768.56 104.864C775.202 109.101 781.801 113.399 788.427 117.664C790.968 119.301 791.918 121.915 791.454 124.83L791.421 125.016L791.2 126.225L791.723 126.97C793.747 129.835 795.954 132.835 797.265 135.997C799.693 139.499 801.889 143.17 803.831 146.955C806.448 152.042 808.611 157.435 810.074 162.968C810.44 164.368 810.802 165.779 811.045 167.206C811.385 169.221 810.856 170.784 810.57 172.718C810.209 175.169 810.079 177.653 809.696 180.109C809.442 181.737 808.061 182.538 806.61 182.582C807.155 186.727 807.549 190.899 807.926 195.038C808.45 200.953 808.811 206.885 809.124 212.816C810.721 215.141 813.991 216.982 816.354 217.62C819.629 218.496 823.055 217.543 826.147 216.427C828.089 215.724 829.686 218.17 828.737 219.804C825.758 224.934 819.392 224.913 814.568 222.642C812.529 221.683 810.737 220.294 809.41 218.486C809.491 220.207 809.577 221.928 809.664 223.655L809.744 225.218C810.726 243.482 812.847 262.374 809.415 280.457C803.475 311.781 777.571 335.631 745.926 337.483C729.324 338.455 715.495 333.547 708.616 330.809C701.742 328.072 704.413 322.489 709.188 324.085C717.411 326.834 732.518 330.929 746.039 329.161C777.9 324.993 804.921 309.056 802.142 240.419C801.748 230.686 800.54 220.947 800.275 211.214C800.027 201.699 800.119 192.179 799.698 182.669L799.558 179.424C799.396 175.633 799.223 171.824 798.937 168.028C798.597 166.557 798.311 165.065 797.891 163.622C796.757 159.695 795.268 155.877 793.423 152.233C793.013 152.544 792.56 152.767 792.063 152.854C788.303 153.529 784.774 153.339 781.251 151.77C779.61 151.045 778.159 150.082 776.81 148.889C776.168 148.328 775.742 147.783 775.402 147.217C773.697 147.244 771.992 146.732 770.929 145.507C769.71 144.11 769.51 142.667 769.985 141.331L770.033 141.198L769.915 141.155C768.479 144.875 765.614 148.148 762.474 150.359C757.51 153.867 751.3 154.88 745.343 154.973C738.772 155.071 731.838 154.058 725.348 153.023C723.632 152.751 721.932 152.44 720.26 152.021C720.195 152.086 720.13 152.162 720.055 152.228C714.486 157.56 706.657 158.933 699.589 155.888C695.51 154.128 692.084 151.296 689.057 148.05C689.014 149.75 688.928 151.449 688.782 153.132L688.723 153.8C688.421 156.935 687.838 160.26 685.475 162.522C681.644 166.187 676.092 164.717 671.678 162.331C671.684 162.446 671.684 162.566 671.684 162.685C672.876 166.737 674.074 170.795 675.272 174.853L675.531 175.717C676.399 178.598 677.354 181.483 677.619 184.499C678.12 190.261 674.284 195.953 667.885 194.02C664.529 193.009 661.837 190.184 659.258 187.921L657.634 186.514C661.837 200.278 664.756 214.532 665.025 228.894C665.047 229.673 664.373 230.261 663.633 230.288C661.901 230.359 660.04 230.016 658.303 229.325C658.2 229.319 658.103 229.314 658 229.297C655.028 228.867 652.27 227.794 649.837 226.209C650.398 227.99 650.646 229.902 650.501 231.901C650.463 232.385 649.708 232.554 649.6 232.02C648.191 225.109 640.109 219.886 633.143 221.209C625.665 222.631 620.156 229.069 618.807 236.394C617.356 244.264 620.129 253.366 625.26 259.439C627.624 262.238 630.731 264.575 634.422 265.163C636.111 265.43 637.864 265.338 639.499 264.858C640.195 264.651 640.848 264.362 641.512 264.09C642.483 263.698 643.616 263.638 644.528 263.224C646.605 262.293 648.688 264.205 647.636 266.334C646.724 268.192 645.904 269.444 644.382 270.403C645.612 271.906 646.729 273.998 647.145 274.558C649.254 277.413 651.396 280.108 653.803 282.718C656.252 285.365 658.928 287.783 661.75 290.022L662.937 290.96C665.662 293.12 668.031 295.121 669.946 298.219C671.462 300.664 669.504 303.981 666.666 303.943C657.795 303.818 651.342 296.018 646.751 289.205C646.098 288.23 645.483 287.2 644.911 286.144C644.706 286.476 644.474 286.786 644.22 287.069L644.727 288.431C646.227 292.44 639.758 295.06 637.88 291.318C636.51 288.605 634.929 286.024 633.165 283.584C632.123 283.436 631.109 282.805 630.543 281.988C629.107 279.913 627.505 277.816 626.151 275.604C625.395 274.891 624.624 274.204 623.836 273.535C623.609 273.736 623.372 273.938 623.151 274.15C622.158 276.41 620.933 278.475 619.417 280.419L619.088 280.834C616.18 284.503 612.392 288.258 607.703 289.155C606.268 289.428 604.892 287.647 606.16 286.509C609.446 283.556 613.325 281.547 616.352 278.251C617.842 276.628 619.212 274.84 620.388 272.966L620.658 272.532C620.852 272.211 621.052 271.89 621.262 271.563C619.897 270.632 618.527 269.695 617.162 268.758C613.401 271.973 608.502 273.444 604.342 276.107L603.932 276.378C600.171 278.894 596.205 273.328 599.222 270.272C602.545 266.916 605.318 262.915 608.264 259.185C606.883 256.633 606.225 253.615 605.982 250.565C605.885 249.702 605.809 248.837 605.734 247.974C603.619 248.006 601.498 247.282 599.702 246.035L599.022 245.55C596.837 246.247 594.549 246.585 592.353 246.525C587.195 246.372 585.08 240.474 588.306 236.743C591.603 232.93 597.365 232.097 601.93 233.948C602.081 233.872 602.232 233.791 602.378 233.709C602.162 232.707 602.211 231.798 602.459 230.999L602.383 230.512C601.38 228.97 600.721 227.21 600.468 225.35C600.274 223.877 600.311 222.416 600.651 220.962C600.765 220.478 601.002 219.976 601.18 219.471C600.813 218.533 600.592 217.564 600.527 216.588C600.419 216.465 600.317 216.338 600.22 216.201C597.954 213.017 598.412 209.181 600.57 206.605C600.576 206.441 600.592 206.277 600.614 206.114C600.489 205.83 600.376 205.543 600.268 205.252C598.159 203.126 596.615 200.566 596.901 197.395C597.074 195.529 597.84 193.849 599 192.594C598.79 191.985 598.774 191.279 599.022 190.69C597.171 185.764 597.403 179.829 598.736 174.319C598.445 173.481 598.293 172.571 598.326 171.607C598.477 167.517 602.016 163.758 606.203 163.807C606.71 163.811 607.18 163.878 607.639 163.974L607.644 163.877C607.8 162.649 608.14 161.514 608.631 160.496C608.389 160.408 608.167 160.282 607.968 160.115C605.286 161.549 602.443 162.645 599.464 163.391C597.274 163.941 595.029 161.449 596.389 159.391C597.02 158.436 597.722 157.579 598.472 156.796C597.403 156.802 596.319 156.874 595.223 157.015C593.249 157.271 591.053 155.926 589.774 154.107C588.182 155.654 586.591 157.195 584.993 158.736C580.958 162.652 574.855 159.771 574.219 154.608C573.015 154.287 571.893 153.742 570.906 152.963C564.539 155.73 557.687 157.249 550.683 157.538C545.649 157.745 542.714 151.884 545.061 147.745C546.642 144.967 548.601 142.473 550.861 140.305C547.354 141.378 543.734 142.151 540.038 142.647C538.042 142.914 535.22 141.258 534.416 139.423C531.356 132.364 531.621 125.006 535.139 118.137C535.279 117.865 535.43 117.604 535.576 117.342C535.943 116.432 536.337 115.534 536.768 114.651C532.436 110.131 532.058 103.41 534.394 97.7831C533.461 96.2637 533.099 94.4335 533.736 92.7776C535.549 88.0118 538.16 83.6113 541.462 79.831C541.144 79.2211 540.869 78.5729 540.631 77.8761C538.775 72.2386 540.928 65.4358 545.266 61.5087C547.991 59.0362 551.126 57.5546 554.476 56.6069C555.885 54.1122 557.697 51.8626 559.807 49.9676C559.888 49.7879 559.974 49.6082 560.066 49.4284C563.352 43.2302 569.341 39.9076 575.756 39.1395C576.01 36.7156 577.639 34.4012 580.013 33.6494C580.666 31.5525 581.643 29.548 582.981 27.7289C585.085 24.864 588.587 23.5132 591.884 25.3923C593.691 26.4217 595.423 27.6036 597.047 28.9108C597.775 28.5689 598.601 28.3477 599.529 28.2771L599.766 28.2627L605.135 27.9903C607.38 26.9936 609.624 25.9478 611.874 24.9293C613.223 23.8127 614.728 22.8814 616.374 22.1897C618.235 21.4108 620.14 20.9696 622.05 20.8226C623.604 20.316 625.163 19.8694 626.755 19.5208C630.489 18.7038 634.395 18.2463 638.269 18.2844C638.35 17.2807 638.388 16.265 638.382 15.2373L638.371 14.7223C638.285 11.4272 640.918 8.79646 644.015 8.32803ZM640.249 271.971C639.72 272.086 639.181 272.178 638.641 272.244C638.803 272.647 638.965 273.05 639.127 273.453C639.559 273.698 640.001 273.932 640.443 274.15C640.314 273.409 640.233 272.663 640.249 271.971ZM612.289 263.656L611.923 264.323C611.869 264.432 611.809 264.54 611.75 264.646C612.521 264.586 613.293 264.602 614.054 264.689V264.608C613.957 264.575 613.854 264.544 613.762 264.499C613.239 264.246 612.748 263.963 612.289 263.656ZM627.402 233.235C632.215 233.516 636.294 234.254 640.675 236.363L641.053 236.547C644.922 238.469 651.321 242.021 650.781 247.113C650.63 248.562 649.583 250.087 647.927 249.973C643.395 249.662 640.8 245.087 637.729 242.233C634.632 239.357 630.829 236.4 627.079 234.422C626.55 234.144 626.76 233.263 627.332 233.235L627.402 233.235ZM605.561 166.138C604.407 166.176 604.795 167.298 605.389 166.361C605.437 166.285 605.497 166.209 605.561 166.138ZM667.853 91.2356C656.921 91.5227 645.925 97.9801 637.735 104.507C630.613 110.185 624.467 116.939 619.018 124.218C617.62 127.843 616.417 131.544 615.397 135.272C614.728 137.734 614.307 140.223 613.752 142.707L613.574 143.468C613.137 144.292 612.807 145.178 612.57 146.093C613.563 147.089 614.847 147.802 616.266 148.141C616.725 148.249 617.102 148.485 617.404 148.798C618.543 146.893 619.541 144.882 620.118 142.75L620.14 142.652C622.336 139.057 624.715 135.575 627.268 132.212C634.314 122.925 642.067 114.461 651.391 107.418C658.464 102.08 666.369 97.8975 674.77 95.1799C672.714 93.5192 670.378 92.2055 667.853 91.2356Z" fill="black"/>
<path fill-rule="evenodd" clip-rule="evenodd" d="M766.37 293.198C762.361 294.36 758.055 294.464 753.971 293.264C750.264 292.175 746.455 289.779 743.73 286.609C741.302 283.793 739.732 280.371 739.797 276.717C739.802 276.3 739.953 275.952 740.18 275.682C740.428 275.391 740.774 275.191 741.14 275.104C741.523 275.015 741.923 275.046 742.268 275.202C742.576 275.343 742.84 275.582 743.007 275.931C743.428 276.483 743.844 277.026 744.264 277.553C747.637 281.719 750.901 284.832 755.967 285.949C758.719 286.555 761.465 286.286 763.985 285.362C766.688 284.372 769.127 282.632 771.037 280.405C771.9 279.399 772.92 278.988 773.918 278.981C775.046 278.973 776.163 279.499 777.005 280.338C777.83 281.164 778.386 282.286 778.434 283.459C778.483 284.489 778.143 285.565 777.253 286.525C774.307 289.686 770.498 292.002 766.37 293.198ZM766.246 241.024C770.357 243.524 776.621 249.353 772.197 255.551C766.996 261.016 759.501 254.75 755.806 251.917C752.385 249.72 748.538 255.369 751.71 257.933C778.397 277.702 789.225 241.677 768.329 238.084C766.025 237.688 765.172 240.25 766.246 241.024ZM727.797 230.023C726.475 229.178 724.921 228.888 723.2 229.672C721.857 230.284 719.494 232.326 717.853 235.01C716.726 236.846 715.932 239 716.094 241.244C716.138 241.765 715.943 242.149 715.641 242.433C715.398 242.658 715.053 242.822 714.648 242.874C714.303 242.918 713.915 242.878 713.602 242.78C713.003 242.593 712.684 242.205 712.566 241.888C711.416 238.832 711.913 235.421 713.202 232.343C714.94 228.19 718.101 224.711 720.168 223.59C723.713 221.67 727.889 221.582 731.439 223.538C734.461 225.202 736.344 227.89 738.221 230.63C738.621 231.212 739.02 231.79 739.43 232.358C740.25 233.496 740.331 234.625 740.013 235.592C739.662 236.665 738.761 237.57 737.639 238.043C736.603 238.481 735.4 238.543 734.331 238.093C733.436 237.713 732.61 236.973 732.087 235.716C731.207 233.6 729.74 231.265 727.797 230.023ZM794.891 234.732C793.99 235.203 793.277 235.345 792.274 235.045C791.718 234.878 791.173 234.558 790.742 234.128C790.315 233.702 790.008 233.173 789.889 232.585C789.598 231.135 788.805 229.778 787.677 228.893C786.711 228.137 785.492 227.736 784.137 227.962C782.681 228.206 781.289 229.142 780.334 230.246C780.01 230.615 779.762 231.035 779.508 231.452C779.039 232.23 778.58 232.955 777.927 233.527C777.679 233.745 777.307 233.896 776.951 233.896C776.805 233.896 776.654 233.872 776.514 233.828C775.062 232.369 774.782 231.263 774.83 230.165C774.879 229.015 775.332 227.849 776.066 226.762C777.781 224.213 781.046 222.122 783.247 221.648C786.263 221 789.258 221.778 791.659 223.464C794.13 225.198 795.959 227.89 796.531 230.925C796.671 231.656 796.612 232.444 796.331 233.128C796.062 233.797 795.587 234.369 794.891 234.732ZM734.45 202.835C732.637 204.599 730.495 204.873 728.331 205.116C727.128 205.252 726.162 205.362 725.218 205.576C722.618 206.163 720.049 207.048 717.702 208.321C715.253 209.653 712.582 211.259 710.661 213.316C710.202 213.806 709.776 214.319 709.345 214.834C708.951 215.303 708.573 215.755 708.174 216.191C707.715 216.692 707.278 217.216 706.846 217.739C706.577 218.181 706.523 218.289 706.469 218.403C706.388 218.573 706.296 218.763 706.188 218.967C706.037 219.246 705.864 219.551 705.686 219.828C705.384 220.335 705.222 220.475 705.082 220.537C704.85 220.64 704.629 220.692 704.418 220.664C704.219 220.638 704.03 220.541 703.841 220.384C702.913 219.599 702.638 218.31 702.665 216.941C702.708 214.865 703.474 212.565 704.181 211.152C705.821 207.867 708.098 204.454 710.834 202.002C713.952 199.205 717.373 197.086 721.296 195.627C723.734 194.72 726.556 193.887 729.211 193.992C731.121 194.068 732.95 194.636 734.455 196.057C735.383 196.928 735.826 198.168 735.826 199.408C735.826 200.672 735.362 201.943 734.45 202.835ZM798.571 218.992C798.457 219.181 798.301 219.311 798.123 219.39C797.934 219.471 797.729 219.495 797.529 219.461C797.33 219.428 797.141 219.338 796.995 219.201C796.849 219.069 796.741 218.894 796.693 218.68C795.49 213.4 793.159 209.47 788.179 206.937C785.729 205.691 782.913 204.899 780.242 204.267C779.47 204.084 778.65 203.965 777.825 203.844C775.24 203.467 772.64 203.035 770.956 200.944C769.936 199.685 769.51 198.075 769.753 196.602C769.98 195.216 770.789 193.944 772.262 193.182C775.925 191.286 780.479 193.147 784.181 194.731C784.456 194.849 784.726 194.965 784.99 195.076C788.605 196.604 791.907 198.622 794.621 201.507C796.774 203.797 798.77 207.181 799.574 210.662C800.238 213.558 800.081 216.515 798.571 218.992Z" fill="black"/>
</svg>
