<svg width="266" height="353" viewBox="0 0 266 353" fill="none" xmlns="http://www.w3.org/2000/svg">
<path fill-rule="evenodd" clip-rule="evenodd" d="M233.608 153.302C235.772 152.116 237.885 150.829 239.964 149.488C241.429 148.568 240.132 146.251 238.63 147.088C237.862 147.516 237.097 147.949 236.329 148.375C236.934 147.828 237.494 147.233 237.996 146.586L237.961 146.549C239.897 144.729 237.41 141.294 235.209 142.789C233.267 144.266 231.307 145.774 229.078 146.746C224.462 148.801 219.37 149.141 214.415 149.2C212.601 149.058 210.869 149.387 209.11 149.754C209.8 146.85 211.526 144.656 212.442 141.844C213.117 139.004 209.211 137.069 207.827 139.799C207.487 140.469 207.163 141.148 206.847 141.829C203.855 144.686 198.859 144.434 195.841 147.501C194.122 149.102 193.281 151.275 192.949 153.455C192.723 154.935 193.074 156.42 192.221 157.731C188.097 163.853 181.582 173.529 178.272 180.266C175.93 164.257 169.674 144.456 163.211 129.817C161.074 125.136 158.629 120.561 155.419 116.592C155.783 115.269 154.499 112.92 153.682 113.643C151.169 110.421 146.726 109.586 143.153 107.984C138.331 105.82 134.329 101.321 132.363 96.2083C129.835 86.4711 123.614 85.2341 114.986 85.6643C106.729 85.6538 100.62 89.3605 98.8179 98.1828C95.1579 104.879 86.5157 103.771 80.2983 105.544C75.7416 106.636 71.3196 108.325 67.1171 110.47C62.4419 105.815 45.6979 125.35 44.1759 130.376C45.0719 130.559 45.9624 130.778 46.8449 131.046C47.6308 131.284 47.3008 132.53 46.5081 132.331C45.5217 132.082 44.529 131.911 43.5316 131.793C43.5011 131.892 43.4745 131.992 43.4547 132.091C43.3427 132.082 43.2309 132.072 43.119 132.064C43.3672 132.2 43.6061 132.357 43.839 132.561C44.4018 133.051 43.6691 133.997 43.071 133.607C42.5076 133.164 41.7696 133.234 41.0938 133.085C41.0536 134.544 36.0945 132.912 35.3242 132.428C31.9007 131.979 28.3786 132.462 25.1826 130.729C20.93 129.789 16.6454 128.749 12.4406 127.552C11.3274 128.007 10.2812 129.638 11.1654 130.834C11.6627 131.378 11.0234 132.267 10.3972 131.88C8.29696 130.582 6.67276 128.557 5.29566 126.375C4.64756 125.689 3.49696 125.837 2.62616 125.551C2.50966 125.771 2.44106 126.016 2.44206 126.267C-1.25194 126.905 1.38326 131.139 3.24026 132.459C2.25516 133.132 2.21776 134.45 2.30396 135.552C2.09516 135.943 2.02546 136.43 2.20716 136.869C2.90186 138.549 4.40416 139.964 5.54646 141.325C6.80776 142.829 7.93226 144.34 9.46696 145.559C15.3166 150.239 22.3757 152.855 29.6175 153.879C32.1888 154.293 35.8875 154.928 37.4796 157.21C37.089 159.918 36.3717 162.515 35.721 165.156C34.8111 168.662 34.873 172.332 34.8609 175.906C34.7338 175.799 34.4895 175.821 34.4532 176.025C34.2415 177.507 34.0841 179.022 33.2262 180.266C32.474 182.582 31.9735 185.05 31.6923 187.482C30.5659 199.011 30.2969 210.882 32.8368 222.231C33.8169 226.442 35.4109 230.443 37.5827 234.128C38.2302 235.227 39.2714 235.549 40.2062 235.333C43.3351 237.039 47.2767 237.586 50.6492 237.153C62.1466 233.737 58.1405 241.963 74.2609 239.444C102.086 235.724 130.207 243.034 157.973 238.742C158.657 244.286 167.609 242.695 170.719 240.351C180.043 233.077 184.673 210.043 189.352 198.359C192.569 189.148 197.955 172.837 205.008 166.656C207.123 164.92 209.68 164.006 212.238 163.269C221.785 160.687 231.368 158.245 240.933 155.735C242.555 155.315 242.264 152.412 240.529 152.598C238.227 152.845 235.917 153.069 233.608 153.302Z" fill="white"/>
<path fill-rule="evenodd" clip-rule="evenodd" d="M21.0835 151.575C20.437 151.491 19.8032 151.25 19.1736 151.059C18.2123 150.764 17.2701 150.42 16.3426 150.027C14.4285 149.223 12.5715 148.271 10.8307 147.107C8.01867 145.224 5.53417 142.812 3.66017 139.907L3.53157 139.705C2.46177 137.994 0.488268 134.196 2.70107 132.898C1.27497 131.647 -0.0729316 129.401 0.00306842 127.668C0.110868 125.215 2.97567 125.248 4.45657 126.288C5.42637 126.969 6.15307 127.922 6.88197 128.86C7.68897 129.902 8.55097 130.896 9.44677 131.852C9.68447 132.104 9.92447 132.352 10.1687 132.595L10.4144 132.838C10.3764 132.742 10.3426 132.645 10.313 132.545C9.81857 130.929 10.4081 128.825 11.9482 128.084C12.8907 127.631 13.8695 127.908 14.7829 128.292L14.9228 128.353C16.1524 128.887 17.3968 129.359 18.6771 129.739C23.8954 131.284 29.3419 131.541 34.689 132.312C36.7489 132.612 38.8468 132.989 40.8961 133.543C41.6777 130.06 43.5939 126.72 45.6728 123.973C55.6277 110.831 72.0453 106.486 87.0643 103.675C88.4329 103.42 89.5679 105.322 90.3649 104.872C91.8749 104.02 93.2039 102.814 94.3699 101.503C96.8569 98.7074 98.6209 95.4194 100.693 92.3034C101.718 90.7653 104.076 92.1418 103.125 93.7942L102.659 94.601C100.742 97.908 98.6179 101.317 95.8679 103.881C94.4059 105.243 92.7839 106.318 90.9289 106.99C89.5239 107.497 87.5525 107.925 86.0144 107.433L85.8299 107.151C85.8909 107.246 85.9524 107.339 86.0144 107.433C90.0289 113.537 95.0649 118.704 100.372 123.58C105.729 128.499 111.508 132.904 117.321 137.212L117.806 137.57C127.277 130.32 135.278 120.862 140.891 110.056C139.715 109.907 138.55 109.116 137.545 108.527C136.334 107.812 135.196 106.961 134.308 105.826C132.375 103.353 132.627 100.167 132.278 97.1662C132.257 96.9805 132.491 96.9333 132.599 97.0267C133.647 97.9405 134.015 99.4377 134.452 100.73C134.934 102.151 135.479 103.323 136.584 104.323C137.612 105.253 138.867 105.938 140.086 106.549C140.715 106.862 143.836 107.665 144.191 108.331C149.583 107.003 154.835 109.298 158.83 113.17C162.69 116.91 165.523 121.773 168.024 126.574C170.693 131.696 172.879 137.035 174.764 142.524C176.674 148.094 178.138 153.786 178.943 159.649C179.622 164.592 180.039 169.612 180.308 174.61L180.341 175.234C184.33 168.665 188.418 162.163 192.591 155.719C191.642 153.06 192.692 150.346 194.469 148.293C196.438 146.021 199.161 144.965 201.766 143.736L202.108 143.574C203.364 142.973 204.615 142.311 205.7 141.41C206.743 140.542 207.51 139.344 208.609 138.543C210.206 137.378 213.105 137.625 213.179 140.174C213.217 141.573 212.644 143.107 212.12 144.364C211.526 145.786 210.726 147.074 209.775 148.258C209.731 148.313 209.683 148.357 209.634 148.392L209.598 148.416C210.912 148.643 212.236 148.828 213.586 148.892C216.31 149.023 219.062 148.812 221.729 148.209C224.458 147.593 227.103 146.59 229.558 145.194C231.656 144.001 233.6 142.458 235.983 142.094C236.202 142.058 236.424 142.036 236.652 142.022C237.033 142 237.413 142.47 237.263 142.865C237.181 143.083 237.094 143.298 236.999 143.515C236.175 145.419 234.911 147.267 233.335 148.67L233.213 148.777C233.769 148.575 234.316 148.349 234.855 148.094C238.022 146.598 240.895 144.336 244.29 143.426C244.45 143.382 244.613 143.342 244.776 143.304C245.826 143.067 246.379 144.264 245.762 145.085C245.663 145.218 245.564 145.349 245.46 145.479C243.946 147.453 242.274 149.284 240.432 150.93C239.8 151.493 239.15 152.039 238.486 152.56C238.207 152.78 237.926 152.996 237.642 153.209L237.502 153.313C237.833 153.068 238.161 152.817 238.486 152.56C240.565 151.899 242.614 151.116 244.619 150.25C245.416 149.906 246.035 150.752 246.119 151.449C246.403 153.781 243.935 155.469 242.329 156.591C240.719 157.718 238.947 158.574 237.132 159.261C233.643 160.584 229.978 161.185 226.319 161.723L224.542 161.984C217.507 163.016 210.16 164.251 205.112 169.995C202.283 173.215 200.369 177.215 198.618 181.151C196.869 185.083 195.333 189.118 193.875 193.176C192.364 197.376 191.048 201.653 189.65 205.895C188.365 209.79 186.831 213.635 185.311 217.441L185.072 218.042C181.845 226.132 177.992 233.751 172.622 240.504C171.736 241.619 170.306 240.037 171.124 238.932C176.741 231.331 180.65 222.362 183.876 213.415C185.344 209.343 186.574 205.174 187.985 201.081L188.825 198.65C189.946 195.408 191.077 192.17 192.257 188.954C193.75 184.885 195.392 180.865 197.27 176.975L197.469 176.566C199.308 172.814 201.493 169.116 204.5 166.277C209.912 161.163 217.113 159.937 224.077 158.965L226.267 158.662C229.211 158.252 232.163 157.798 235.026 156.973C236.678 156.497 238.292 155.89 239.809 155.052C240.413 154.719 241.003 154.354 241.573 153.954C239.946 154.456 238.296 154.866 236.617 155.187C235.795 155.344 234.981 155.462 234.17 155.545C232.081 155.762 230.008 155.753 227.868 155.635C227.686 155.624 227.627 155.325 227.822 155.287C229.312 155.009 230.804 154.661 232.29 154.284L232.736 154.169C232.744 153.91 232.841 153.635 233.044 153.374C233.784 152.429 235.188 151.945 236.162 151.278C237.183 150.579 238.172 149.826 239.114 149.018C239.976 148.28 240.804 147.5 241.6 146.684L241.839 146.437C241.76 146.52 241.68 146.602 241.6 146.684C239.45 147.726 237.411 149.063 235.165 149.888C233.38 150.547 231.508 150.989 229.619 151.147L229.502 151.157L229.385 151.165C227.414 151.314 225.43 151.254 223.488 151.702C223.271 151.752 223.203 151.447 223.398 151.36C225.094 150.619 226.858 150.334 228.641 149.987C228.679 149.842 228.776 149.71 228.945 149.626L229.402 149.398C230.76 148.713 232.027 148.021 233.156 146.91C234.153 145.927 234.984 144.779 235.607 143.506C233.112 144.081 230.921 146.065 228.652 147.18C226.18 148.398 223.564 149.271 220.877 149.768L220.571 149.824C215.549 150.703 209.51 150.591 205.011 147.85C204.867 147.761 204.971 147.56 205.119 147.584C206.395 147.803 207.658 148.063 208.922 148.293C208.674 148.056 208.564 147.63 208.85 147.289C209.984 145.924 210.882 144.364 211.455 142.657L211.565 142.323C211.829 141.531 212.276 140.303 211.82 139.588C211.385 138.907 210.36 139.001 209.748 139.288C208.474 139.891 207.626 141.398 206.553 142.306C205.383 143.3 204.052 144.035 202.689 144.694L202.401 144.832C200.044 145.945 197.526 146.881 195.673 148.846C194.676 149.901 193.818 151.22 193.531 152.699C193.4 153.378 193.4 154.076 193.573 154.749C193.71 155.274 193.998 155.597 193.833 156.132C193.617 156.822 192.855 157.646 192.462 158.261C192.005 158.97 191.551 159.682 191.097 160.394C190.191 161.818 189.288 163.246 188.386 164.671C186.582 167.527 184.797 170.397 183.026 173.275C182.45 174.212 181.876 175.151 181.304 176.09L180.447 177.499L179.994 178.242L179.222 179.516C179.249 179.635 179.247 179.758 179.211 179.867C179.079 180.261 178.833 180.53 178.526 180.725L178.472 180.758C173.963 188.238 169.526 195.766 165.045 203.263C164.807 205.551 164.583 207.841 164.388 210.133C163.947 215.317 163.645 220.514 163.548 225.718C163.501 228.238 163.693 230.772 163.797 233.289C163.848 234.49 163.917 235.689 164.008 236.89L164.074 237.739C164.163 238.907 164.214 240.068 163.814 241.181C163.459 242.159 162.377 242.378 161.737 241.633C153.386 241.28 145.028 241.012 136.67 240.846C121.71 240.544 106.744 240.591 91.7819 240.894C84.2672 241.047 76.7503 241.263 69.2376 241.529C65.5362 241.657 61.8327 241.84 58.1292 241.892C56.1338 241.921 52.9934 241.159 52.8324 238.802L52.8285 238.731C52.5792 238.801 52.3214 238.859 52.0573 238.901C51.9398 238.92 51.8269 238.915 51.7226 238.889L51.6707 238.875C48.6964 239.826 44.9339 238.469 42.1076 237.678L41.8743 237.612C39.1764 236.875 37.0088 235.818 35.2405 233.473C32.1454 229.364 31.0891 223.847 30.5398 218.762C30.0243 213.977 29.9947 209.104 30.6222 204.328C30.2524 200.436 30.6137 196.42 31.0341 192.551C31.2412 190.637 31.4841 188.726 31.7757 186.824C31.9384 185.761 32.1517 184.709 32.3693 183.661C32.4562 183.242 32.5286 182.791 32.6387 182.354L32.6883 182.168C32.3503 182.216 31.9806 182.138 31.6235 181.931C30.7743 181.441 30.5271 180.45 30.5123 179.501C30.4658 176.64 30.7912 173.699 31.0785 170.855C31.3679 168.017 31.7651 165.168 32.2848 162.365L32.4193 161.643C32.8131 159.545 33.2637 157.381 34.0574 155.412C31.0764 154.88 28.1039 154.314 25.2116 153.351C23.8004 152.879 22.4102 152.291 21.0835 151.575ZM176.674 181.344C176.627 181.355 176.583 181.368 176.538 181.382C175.347 181.732 174.143 182.029 172.943 182.349C170.868 182.897 168.84 183.508 166.911 184.46C166.507 189.813 165.908 195.148 165.338 200.486L165.225 201.554C166.1 199.85 166.995 198.161 167.931 196.492C170.781 191.402 173.697 186.354 176.674 181.344ZM33.415 181.874C33.4213 182.51 33.2946 183.171 33.227 183.783C33.1171 184.777 33.0284 185.774 32.9164 186.768C32.6882 188.763 32.4939 190.761 32.3523 192.766C32.2615 194.045 32.2023 195.329 32.1495 196.613C33.3474 191.914 34.934 187.318 36.4425 182.714C36.1903 182.687 35.9326 182.622 35.6667 182.547L35.2191 182.421C34.9552 182.35 34.099 182.129 33.415 181.874ZM180.447 177.499L180.455 177.709C180.487 178.456 180.06 178.878 179.543 178.986C179.843 178.49 180.145 177.994 180.447 177.499ZM43.3761 142.083C44.6374 142.199 45.8733 142.482 47.0521 142.97L47.1659 143.016C48.0378 143.369 49.3127 143.813 49.5979 144.79C49.6782 145.067 49.4627 145.296 49.2155 145.318C48.269 145.397 47.1536 144.333 46.2768 143.974C45.3007 143.575 44.2782 143.277 43.243 143.12C40.9169 142.763 38.4916 143.034 36.3028 143.923C36.174 143.976 36.0937 143.761 36.2099 143.697C38.4155 142.437 40.8683 141.85 43.3761 142.083ZM16.6491 148.424C16.5032 148.289 16.3575 148.147 16.2138 148.006C15.0811 146.881 14.0781 145.568 13.3354 144.126L13.1399 143.735C12.535 142.506 11.7923 140.755 13.2138 139.869C14.0631 139.339 15.0856 139.473 16.0321 139.794C16.0934 139.814 16.1546 139.837 16.2159 139.859C16.6385 140.014 17.0462 140.2 17.4096 140.377C18.9877 141.138 20.38 142.245 21.8377 143.22C23.4173 144.278 24.9769 144.955 26.7999 145.35L26.9716 145.387C28.6828 145.741 30.5377 145.969 31.7314 147.446C32.0314 147.819 31.7568 148.518 31.2392 148.333C27.9392 147.165 24.4469 146.907 21.4173 144.989C20.1624 144.196 18.9751 143.284 17.6927 142.532C17.0124 142.133 16.31 141.784 15.5615 141.545L15.1526 141.418C14.9131 141.344 14.6272 141.272 14.4349 141.344C14.069 141.478 14.1858 141.683 14.299 142.041L14.3103 142.078C15.1997 144.965 17.7349 147.382 20.0842 148.981C20.623 149.348 21.1744 149.686 21.7363 149.999C25.5403 152.127 29.7967 153.117 33.9771 154.293C33.9771 154.293 36.3941 155.001 37.1949 155.267C38.0864 155.189 39.1026 155.52 39.7744 155.915C40.4272 156.298 40.9533 156.813 41.3505 157.419C41.3505 157.419 41.7329 157.753 41.8026 158.272C42.0033 158.753 42.1385 159.271 42.2061 159.813C42.2441 160.13 42.1681 160.374 42.0244 160.546C42.4565 167.507 40.6651 174.43 38.6454 181.045L38.4453 181.697L38.3167 182.111C36.1385 189.124 33.6392 196.088 32.5237 203.4C31.778 208.285 31.8012 213.341 32.3484 218.248L32.387 218.587C32.9261 223.226 33.9634 228.431 36.7744 232.165C38.2082 234.071 39.9069 234.917 42.0787 235.531L42.1977 235.565C44.1625 236.107 46.1906 236.877 48.2167 237.11C50.097 237.325 51.673 236.591 53.3653 235.903L53.3673 235.901C56.9315 232.59 58.5498 227.77 59.7455 222.904C62.8448 210.314 62.4603 197.245 60.7026 184.47C59.7857 177.797 58.5392 171.179 57.2969 164.564C56.6758 161.259 56.0061 157.959 55.4505 154.641L55.1205 152.69C54.9384 151.605 54.7623 150.519 54.6117 149.429C54.4089 147.964 54.3477 146.522 54.2779 145.047C52.5709 142.078 50.0927 139.632 47.2216 137.878C45.166 136.621 42.9899 135.749 40.7441 135.118C34.3237 133.302 27.3244 133.431 20.8638 132.033C18.6935 131.564 16.6333 130.868 14.5742 130.034L14.2934 129.92C13.349 129.534 12.3857 129.319 11.9166 130.488C11.5828 131.32 11.7814 132.184 12.2821 132.883C13.5096 134.594 15.9772 135.388 17.8342 136.004C18.9519 136.377 20.0927 136.672 21.2462 136.892C22.3997 137.111 23.5575 137.167 24.6645 137.595C25.0913 137.758 25.1758 138.471 24.6645 138.597C23.2617 138.941 21.8504 138.646 20.4561 138.36C18.9244 138.042 17.4159 137.593 15.9497 137.022C15.6793 136.918 15.3994 136.808 15.1144 136.69L14.8997 136.601C15.1216 136.77 15.3434 136.936 15.5673 137.103C15.6265 137.147 15.5906 137.264 15.5124 137.235C12.0649 135.886 8.92817 133.449 6.49807 130.568L6.37717 130.424C5.52157 129.394 3.57157 126.282 1.92787 127.148C0.384468 127.961 3.01547 131.096 4.01537 132.377L4.13147 132.527C5.26807 132.559 6.36877 133.302 7.28987 133.901C8.88917 134.94 10.5603 135.836 12.2632 136.675C15.6477 138.344 19.2413 139.521 22.5899 141.275C22.6343 141.3 22.6005 141.359 22.5582 141.353C20.4265 140.996 18.3181 140.426 16.2582 139.719L16.1663 139.689L16.0744 139.656C14.7878 139.213 13.5181 138.712 12.2695 138.177C10.8815 137.583 9.52507 136.916 8.20887 136.159C7.01737 135.476 5.69487 134.246 4.31317 134.064C4.16527 134.044 4.03427 134.042 3.92017 134.054C2.33357 134.193 3.64557 136.952 4.08917 137.776C4.81387 139.131 5.68847 140.381 6.69207 141.524C8.72657 143.844 11.1921 145.682 13.8604 147.112C14.7709 147.6 15.7026 148.03 16.6491 148.424Z" fill="black"/>
<path fill-rule="evenodd" clip-rule="evenodd" d="M118.004 1.70874C127.463 1.70874 138.811 6.52147 139.776 6.61778L139.802 6.61925C140.31 6.61925 142.294 8.20538 145.753 11.3777L142.006 19.0486L142.309 19.3525C143.761 20.8128 144.999 22.1437 145.977 23.1929C153.961 31.7597 155.396 65.3955 153.515 77.1252C151.633 88.8559 148.148 100.334 131.923 100.334C115.698 100.334 97.6468 90.0939 94.8668 86.9055C93.0128 84.7799 90.9308 83.7611 88.6198 83.8503C88.5248 83.7244 88.4308 83.5985 88.3368 83.4737L87.9968 83.4233C84.7993 82.9375 82.5078 82.2829 81.1231 81.4603C78.4182 79.854 75.4452 71.4104 75.4452 69.5502C75.4452 67.7089 71.0058 54.3132 70.9171 52.8956L70.9157 52.8563C70.9157 51.6713 65.1162 46.2236 65.1162 44.4935C65.1162 42.7635 63.9472 42.8685 65.1162 36.772L65.4558 34.981C66.6998 28.4901 69.1346 17.742 78.4182 13.0716C88.6198 7.93941 108.45 1.70874 118.004 1.70874Z" fill="white"/>
<path fill-rule="evenodd" clip-rule="evenodd" d="M76.844 12.8307C81.9319 7.16258 110.817 -1.60463 125.431 0.253852L125.869 0.313445C127.035 0.468616 128.184 0.703734 129.319 1.02299C132.985 1.92171 136.772 3.28257 139.802 5.55558C142.331 7.41512 150.309 10.4518 147.957 15.3164C148.829 17.0502 149.155 19.1922 148.565 20.8998C148.491 21.4896 148.318 22.0329 148.096 22.5962C149.959 25.4812 151.434 28.7438 152.628 31.8472C154.714 39.6571 156.012 47.7848 156.203 55.7526C156.835 70.892 155.254 88.9754 142.691 98.7641C135.102 104.968 123.215 105.176 114.686 97.4841C114.202 96.884 111.926 95.2609 112.686 94.9766C112.912 95.2274 113.144 95.4708 113.381 95.711C113.37 95.6837 113.368 95.6575 113.373 95.6281L113.15 95.4173C112.731 95.0102 112.188 94.4195 112.806 94.5359C112.834 94.5685 112.863 94.5979 112.893 94.6304C113.024 94.7133 113.123 94.7846 113.2 94.8476L113.239 94.8811L113.227 94.8675C112.871 94.4688 112.657 94.0628 113.19 94.3219L113.26 94.3576C113.497 94.6199 113.738 94.8706 113.983 95.114C113.979 95.0857 113.983 95.0563 113.998 95.0259L113.769 94.794C113.546 94.5643 113.58 94.5632 113.689 94.3775C113.215 93.6809 114.1 94.0953 114.162 94.367C114.716 94.2296 115.202 95.3207 115.559 95.454C131.193 108.068 153.88 96.8745 153.513 61.7234L153.507 61.0362C153.399 49.7959 152.498 38.2434 148.069 28.0687C147.638 27.0886 147.156 26.1351 146.626 25.2127C146.261 24.5209 145.87 23.8468 145.449 23.1904C144.272 23.0906 143.11 22.8644 141.965 22.5141C141.572 22.4098 141.184 22.2945 140.795 22.1593C135.116 22.4843 129.564 22.838 123.869 23.1733L122.09 23.2896C117.266 23.6151 112.277 24.1365 108.384 27.2682C104.565 30.1194 104.547 35.7415 101.277 38.8719C96.6149 42.1934 96.5809 45.1884 95.6829 50.0831C95.7489 53.7729 98.1869 59.1341 93.7139 60.6868C94.4689 61.8157 93.4169 61.2733 93.3339 60.8778C93.3249 60.8799 93.3169 60.882 93.3109 60.882C93.9829 62.1934 92.9939 61.3678 92.9069 60.946C92.8539 60.9303 92.8009 60.8904 92.7489 60.8358C93.4259 61.9847 92.3309 61.1799 92.3959 60.9701C91.0869 58.8582 88.3919 58.5308 86.4926 59.09C86.4694 59.1656 86.3851 59.1719 86.3323 59.132C78.2562 60.9691 80.3399 78.5173 88.6159 76.8209C88.9699 76.7443 88.9619 76.9237 89.0319 76.9405C88.8409 76.4138 89.3799 76.6278 89.3739 76.739L89.4069 76.7369C89.4329 76.7348 89.4229 76.7317 89.4419 76.739C89.2569 75.6615 90.2969 77.2227 90.2149 77.2867C90.2469 77.2667 90.2829 77.2552 90.3149 77.251L90.2789 77.1482C90.1059 76.6656 90.1209 76.866 90.1219 76.59C89.9929 76.248 89.9829 76.398 90.0139 76.1756C90.4689 75.8042 90.6039 76.9289 90.7559 77.0118C90.4949 76.6299 90.7029 76.3183 90.9489 76.525C92.8129 80.6409 95.2199 84.507 98.3319 87.5527C98.6729 87.835 99.0169 88.1119 99.3739 88.3732C100.697 89.5829 102.728 90.3613 103.967 91.4336C103.967 91.4514 103.958 91.4734 103.946 91.4955L103.974 91.5228L104.003 91.5511L104.434 91.7683C104.561 91.8816 104.675 92.0075 104.776 92.147C104.884 92.2782 104.979 92.4219 105.059 92.5751C105.099 92.7618 105.011 92.8395 104.842 92.7597C104.767 92.7324 104.694 92.702 104.62 92.6726C104.624 92.68 104.626 92.6842 104.63 92.6884C104.655 92.7272 104.819 93.1259 104.63 93.0608L104.607 93.0525C104.503 93.0126 104.4 92.9675 104.299 92.9255C104.419 93.0829 104.529 93.2539 104.626 93.3976C104.73 93.5109 104.793 93.6442 104.818 93.7952C104.814 93.8792 104.77 93.9148 104.689 93.9033C104.567 93.8613 104.446 93.8173 104.326 93.7701L104.36 93.8393C104.445 94.0156 104.566 94.3104 104.351 94.2118C104.167 94.152 103.99 94.0827 103.813 94.0082C103.798 94.0387 103.768 94.0502 103.709 94.0208C103.145 93.8099 102.6 93.5529 102.078 93.2497C101.62 92.8993 101.157 92.5551 100.696 92.2068C100.263 91.934 99.8449 91.6308 99.4459 91.2888C96.7739 89.4779 94.4349 87.1771 92.5799 84.6151C89.4759 87.4352 83.2714 84.741 79.4333 82.5325C76.0385 80.559 74.7041 76.91 74.3591 72.9757C73.6419 67.6795 69.5179 65.8666 69.8048 54.245C69.7985 54.2471 69.7919 54.2471 69.7835 54.2471C69.6335 54.2009 69.4879 54.139 69.3506 54.0593C69.209 53.9879 69.0759 53.904 68.9511 53.8012L68.7969 53.5777C68.7168 53.5311 68.645 53.4824 68.59 53.4336L68.5615 53.4722C68.4714 53.5864 68.532 53.4146 68.5372 53.3804L68.2693 52.998C67.634 52.0877 66.9371 51.0662 66.3694 50.2495L66.3515 50.2826C66.3387 50.3077 66.3319 50.3257 66.3379 50.3337C64.9869 48.2963 63.7163 45.8354 63.3633 43.4531C62.9464 41.6179 63.1093 39.7269 63.4729 38.027C65.0319 32.0744 70.1386 18.6041 76.844 12.8307ZM113.509 95.1529L113.424 95.0731L113.499 95.1717C113.538 95.2221 113.578 95.2672 113.643 95.3134C113.639 95.2987 113.639 95.283 113.641 95.2651C113.597 95.2305 113.553 95.1927 113.509 95.1529ZM125.366 3.2448C115.456 2.3505 105.709 4.64197 96.2519 7.41574L95.5989 7.61257C90.2219 9.22293 84.5363 10.672 79.9922 14.1189C73.6434 19.2228 70.3649 27.3421 67.5039 34.8384C65.0057 40.4081 66.2828 46.6885 70.0476 50.5775C70.4393 46.7128 71.1071 42.9613 72.1508 39.2398C72.3686 38.6583 72.2038 38.4679 72.6732 38.392C73.3823 48.4209 69.8902 55.8303 76.8008 67.7162C79.7993 73.325 76.3282 77.4283 84.7958 80.3796L85.0249 80.4709C86.789 81.1696 88.7159 81.7215 90.4429 81.3312L90.2889 81.0668C90.1309 80.794 90.0829 80.6618 90.3119 80.5454C90.3059 80.5328 90.2979 80.5191 90.2889 80.5034C90.1039 80.1352 89.9239 79.7627 89.7529 79.3861C89.6829 79.4102 89.6129 79.428 89.5409 79.448C89.5879 79.5392 89.5939 79.6305 89.4629 79.6609C88.9979 79.8288 88.5199 79.896 88.0299 79.8645L87.9249 79.8561C87.3724 79.8204 87.024 79.7144 86.7124 79.6169C86.6091 79.599 86.5056 79.5812 86.4039 79.5592C85.4015 79.3263 84.3403 78.7324 83.6535 78.1449C75.8243 73.4772 76.6335 57.5897 86.2837 56.0873C86.4817 46.0847 91.0149 29.2084 98.5379 19.6765C105.338 10.9086 123.903 7.10845 136.819 8.44844C137.008 8.5138 137.196 8.5799 137.384 8.64662C139.377 8.83243 141.276 9.76419 143.27 10.1971C141.838 9.0708 140.214 8.32065 138.541 7.68318C135.208 5.5432 131.386 4.38524 127.694 3.56858C126.93 3.37123 126.154 3.26253 125.366 3.2448ZM85.8418 64.1239C86.3607 63.828 86.3013 64.1134 86.4207 64.0305C90.1529 63.7105 94.1769 67.1402 96.2639 70.0003C96.0989 70.1797 95.6529 69.6477 95.5749 69.5628C95.5639 69.5743 95.5519 69.5827 95.5389 69.5869L95.5969 69.674C96.4429 70.9466 94.7659 69.4484 94.6099 69.1399C94.5819 69.1546 94.5549 69.1641 94.5229 69.1567C94.6559 69.2942 95.0619 69.6509 95.1309 69.9048L95.2389 69.9982C96.2539 70.9099 96.1689 71.596 95.0169 70.3014C95.0449 70.3612 95.0549 70.4168 95.0359 70.4608L95.0759 70.4892C95.6419 70.9046 96.1079 72.0619 94.9239 70.8732C95.0469 71.7419 93.7509 70.0632 93.7099 70.0747C91.4659 68.2272 88.1639 66.43 85.3496 66.1876L85.2527 66.1761C84.7364 66.1068 84.4922 65.9463 84.6735 65.5917C84.0376 65.4333 84.1865 65.1038 84.4876 65.1154C84.0391 64.8059 84.4428 64.5089 84.7031 64.6244C84.5241 64.105 85.2418 64.4512 85.3073 64.3788C85.6798 63.7756 85.7801 64.2792 85.8418 64.1239ZM78.0186 31.8937C79.8112 31.2045 85.1062 33.2676 84.6826 35.9999C84.4304 36.6273 83.5992 36.9866 83.0151 36.6325L82.2527 36.0951C80.9258 35.1624 79.7292 34.3447 78.3047 33.5313C77.5293 33.1275 77.1955 32.2702 78.0186 31.8937ZM88.2179 27.8334L87.5253 27.3605C83.7892 24.7942 78.5077 20.9056 87.8739 24.9288C88.9419 25.4093 90.3599 25.6936 90.9429 26.7606C91.8579 28.7272 89.4499 28.8594 88.2179 27.8334ZM88.6369 16.3186C88.3379 15.1246 92.0679 16.5257 93.1539 16.8951L93.3189 16.9607C94.3759 17.3739 95.5869 17.757 96.2179 18.7139C96.9589 20.0359 95.4599 20.3097 94.5319 19.7126C92.6289 18.4074 90.5429 17.4227 88.6369 16.3186ZM98.1239 10.7563C96.0239 8.34961 101.643 10.6551 102.485 11.295L102.509 11.3139C103.137 11.7781 103.01 12.7777 102.42 13.0713C100.741 13.1047 99.5049 11.6359 98.1239 10.7563ZM107.679 8.11953C104.341 5.60164 108.738 6.79926 110.265 7.786C111.306 8.74944 110.234 10.376 107.679 8.11953Z" fill="black"/>
<path fill-rule="evenodd" clip-rule="evenodd" d="M139.819 80.7386C141.154 80.4123 142.203 81.5989 141.941 82.9649C141.663 84.4117 140.181 84.908 138.938 84.8618C137.529 84.8115 136.121 84.5062 134.705 84.4443C133.251 84.3813 131.791 84.3698 130.335 84.4107C128.989 84.4495 127.607 84.6982 126.272 84.4747C125.752 84.3876 125.801 83.6668 126.139 83.4108C127.144 82.6502 128.446 82.3396 129.631 82.0207C130.838 81.6954 132.073 81.4468 133.311 81.2947C134.567 81.1404 135.833 81.0628 137.097 81.0481C137.672 81.0408 138.377 81.1751 138.938 81.067C139.224 81.0114 139.515 80.8131 139.819 80.7386ZM135.965 61.947C137.56 62.9647 139.991 65.3379 138.275 67.8611C136.255 70.0864 133.346 67.5359 131.913 66.3818C130.584 65.4879 129.091 67.7877 130.324 68.8316C140.681 76.8798 144.884 62.2135 136.772 60.7509C135.879 60.5894 135.547 61.6322 135.965 61.947ZM124.396 54.3468C126.531 53.9744 126.904 57.167 124.789 57.3905C124.345 57.4377 123.904 57.4786 123.463 57.5185C123.506 57.6632 123.535 57.8122 123.55 57.9654C123.57 58.0955 123.585 58.2329 123.599 58.3903C123.666 59.1761 123.135 59.9934 122.515 60.3743C121.87 60.7698 120.945 60.8223 120.306 60.3743C119.976 60.1424 119.646 59.8812 119.464 59.4993C119.22 59.1058 119.087 58.6505 119.073 58.1836C118.101 58.4491 117.11 58.8079 116.127 58.9978C116.163 59.0345 116.199 59.0744 116.233 59.1184C116.26 59.152 116.224 59.2139 116.185 59.1835L115.692 59.0691C115.541 59.0901 115.389 59.1069 115.238 59.1163L115.241 59.1027C114.989 59.0985 114.781 58.7848 115.008 58.533C115.876 57.5699 117.23 56.9299 118.466 56.3948L119.655 55.8828C121.177 55.2344 122.783 54.6291 124.396 54.3468ZM141.565 55.3351C142.963 55.1673 144.347 55.2334 145.747 55.3236C148.103 55.4736 147.115 59.0807 145.223 58.2476C145.243 58.3798 145.248 58.512 145.233 58.6348C145.159 59.2685 144.962 59.8046 144.408 60.1456C143.893 60.4614 143.241 60.4603 142.726 60.1456C142.174 59.8077 141.926 59.3325 141.785 58.7145C141.676 58.235 141.72 57.8343 141.783 57.359C141.804 57.2027 141.869 57.0558 141.959 56.9236C141.827 56.889 141.695 56.8554 141.563 56.825C140.387 56.5438 139.227 56.6004 138.055 56.4221C137.93 56.4032 137.91 56.1913 138.019 56.1378C139.073 55.6174 140.412 55.4726 141.565 55.3351ZM124.181 44.1965C124.988 43.8733 126.001 44.4106 126.413 45.1497C126.88 45.9883 126.681 46.9564 126.104 47.6631C125.219 48.7472 123.534 49.415 122.292 50.0336L122.193 50.0836C120.917 50.7294 119.607 51.3223 118.28 51.839C116.974 52.3474 115.615 52.7457 114.261 53.0876C113.548 53.2679 112.819 53.4169 112.089 53.5109C111.513 53.5849 111.069 53.4191 110.518 53.4191C110.438 53.4194 110.412 53.3073 110.478 53.2643C110.993 52.9246 111.375 52.4773 111.937 52.1627C112.521 51.8352 113.108 51.5132 113.697 51.1944C114.888 50.55 116.035 49.8329 117.184 49.1111C118.395 48.3503 119.578 47.5492 120.729 46.6915C121.856 45.8522 122.894 44.712 124.181 44.1965ZM138.555 43.5063C139.563 43.3012 140.56 43.8015 140.858 44.8789C141.144 45.9111 140.845 46.1325 141.608 46.8711C142.216 47.4597 142.871 47.9851 143.532 48.5024L144.506 49.2619C146.269 50.6318 148.046 51.9269 150.074 52.8512C150.245 52.9293 150.146 53.1964 149.983 53.2C146.761 53.2652 143.671 52.8073 140.762 51.293C139.403 50.5857 138.038 49.6909 137.25 48.2789C136.338 46.6437 136.365 43.9521 138.555 43.5063Z" fill="black"/>
<path fill-rule="evenodd" clip-rule="evenodd" d="M112.571 348.479C113.685 350.255 115.876 349.982 116.817 348.607C127.529 351.227 138.512 350.194 149.373 349.551C179.98 348.245 210.76 352.342 241.243 348.055C244.477 347.377 248.24 347.702 250.886 345.347C255.118 340.142 254.207 332.24 253.533 325.9C248.129 290.163 240.447 254.099 236.615 218.133C236.401 214.707 237.746 210.45 238.952 207.229C239.25 206.63 241.132 206.044 242.109 205.352C245.107 203.093 244.621 199.046 242.022 196.67C233.607 190.445 221.893 192.621 212.966 194.917C211.255 188.173 209.332 183.738 206.075 183.299C199.876 182.463 184.837 179.908 180.204 183.299C177.988 184.921 176.566 190.637 174.971 193.421C163.337 193.205 139.725 176.868 134.87 195.264C130.926 195.55 127.02 199.164 127.774 203.501C122.659 208.245 126.694 215.358 126.623 221.263C125.951 233.791 119.492 244.995 116.805 257.097C110.662 280.57 103.71 323.266 111.329 346.177C111.165 346.087 110.807 346.222 111.038 346.413C111.901 346.668 112.013 347.809 112.571 348.479Z" fill="white"/>
<path fill-rule="evenodd" clip-rule="evenodd" d="M246.325 342.51C244.896 330.471 243.902 315.937 243.891 303.798C243.89 302.655 245.58 302.657 245.581 303.798C245.593 315.937 246.586 330.471 248.015 342.51C248.149 343.643 246.458 343.628 246.325 342.51ZM235.741 267.862C233.533 269.28 230.634 268.297 228.449 267.358C227.454 266.931 227.892 265.215 228.898 265.648C230.561 266.362 232.991 267.413 234.746 266.417C236.498 265.423 236.577 262.688 236.59 260.883C236.598 259.741 238.288 259.741 238.28 260.883C238.262 263.338 237.949 266.444 235.741 267.862ZM231.654 322.955C229.427 321.757 227.526 320.119 225.997 318.04C225.332 317.135 226.801 316.253 227.456 317.144C228.802 318.975 230.556 320.374 232.507 321.424C233.476 321.946 232.62 323.475 231.654 322.955ZM220.948 261.045C217.126 277.119 214.561 293.481 213.304 309.997C213.048 313.349 212.869 316.698 212.767 320.048C212.666 320.922 212.569 321.798 212.478 322.674C212.134 325.986 211.87 329.353 211.893 332.687C211.903 334.184 211.948 335.674 212.045 337.166C211.876 336.668 211.72 336.166 211.567 335.668C211.257 334.645 211.052 333.585 210.735 332.57C210.473 331.729 210.135 330.925 209.82 330.11V330.108C209.915 326.776 209.7 323.411 209.59 320.095C209.448 315.798 209.273 311.505 209.182 307.205C209.001 298.606 209.091 290 209.387 281.405C209.981 264.088 211.481 246.852 212.994 229.605C213.414 224.808 213.866 220.014 214.179 215.209C214.494 210.353 214.62 205.488 214.656 200.618C214.658 200.268 214.151 200.176 214.058 200.515C213.976 199.359 213.83 198.206 213.587 197.09C217.232 199.529 221.075 201.638 224.841 203.856C226.825 205.025 228.801 206.213 230.846 207.26C231.97 207.836 233.104 208.367 234.262 208.867C235.462 209.386 236.609 210.1 237.929 209.739C238.044 209.707 238.151 209.663 238.255 209.606C238.105 209.905 237.955 210.203 237.811 210.504C237.313 211.543 236.837 212.588 236.377 213.642C236.254 213.736 236.146 213.867 236.062 214.038C235.838 214.497 235.62 214.961 235.409 215.431C235.367 215.389 235.325 215.347 235.282 215.305C235.105 215.129 234.86 215.393 235.016 215.584C235.088 215.67 235.158 215.755 235.227 215.841C233.85 218.952 232.73 222.223 231.577 225.416C230.159 229.34 228.815 233.295 227.55 237.274C225.055 245.104 222.853 253.036 220.948 261.045ZM166.308 319.38C159.264 323.339 152.681 328.071 146.35 333.174C145.487 333.87 144.647 332.327 145.497 331.642C151.828 326.539 158.411 321.807 165.455 317.848C166.414 317.308 167.267 318.84 166.308 319.38ZM142.516 273.01C142.15 272.981 141.795 272.758 141.702 272.358C141.131 269.906 140.684 267.235 141.215 264.735C141.451 263.619 143.081 264.094 142.845 265.206C142.426 267.178 142.759 269.31 143.193 271.276C149.337 271.559 155.398 269.245 161.275 267.691C162.332 267.411 162.779 269.124 161.725 269.402C155.49 271.05 149.041 273.516 142.516 273.01ZM264.82 338.415C264.826 338.4 264.832 338.382 264.836 338.366C265.198 337.217 265.206 335.883 265.246 334.678C265.316 332.537 265.242 330.391 265.058 328.254C264.67 323.76 263.833 319.339 262.834 314.954C260.854 306.271 258.057 297.823 256.538 289.022C253.557 271.746 254.265 253.759 248.415 237.095C245.983 230.168 242.51 223.509 237.79 218.005C238.134 216.906 238.47 215.803 238.798 214.697C239.37 212.772 239.955 210.785 240.308 208.803C240.317 208.749 240.327 208.694 240.334 208.639C242.343 207.73 244.17 206.015 244.483 203.737C244.618 202.751 244.462 201.66 244.056 200.71C244.884 199.907 245.417 198.864 245.29 197.468C245.053 194.838 242.127 194.161 240.091 193.647C237.775 193.063 235.373 192.902 233.005 193.177C231.809 193.314 230.626 193.545 229.47 193.891C228.467 194.19 227.375 194.499 226.57 195.222C226.475 195.305 226.553 195.469 226.667 195.469C228.296 195.463 229.918 194.835 231.564 194.754C233.288 194.669 235.008 194.818 236.698 195.19C238.35 195.554 239.998 196.086 241.5 196.909C241.922 197.142 242.541 197.299 242.045 197.769C241.682 198.113 240.967 198.141 240.501 198.193C239.467 198.306 238.576 198.94 238.445 200.097C238.329 201.12 238.91 202.277 239.945 202.508C240.002 202.522 240.055 202.536 240.101 202.556C240.129 202.612 240.171 202.658 240.167 202.584C240.167 202.584 240.169 202.58 240.169 202.584C240.194 202.745 240.203 202.809 240.203 202.821C240.196 202.807 240.186 202.751 240.177 202.707C240.184 202.747 240.196 202.811 240.213 202.907C240.19 202.803 240.209 203.058 240.19 203.098C239.641 204.161 238.016 204.462 237.07 204.92C236.886 205.009 236.727 205.113 236.592 205.231C236.368 205.149 236.14 205.067 235.91 204.976C234.775 204.53 233.643 204.097 232.494 203.696C230.275 202.918 228.029 202.224 225.811 201.443C221.611 199.967 217.551 198.102 213.429 196.412C213.298 195.902 213.146 195.403 212.966 194.917C212.93 194.816 212.757 194.782 212.738 194.917C212.674 195.347 212.624 195.78 212.582 196.215C212.565 196.255 212.56 196.299 212.569 196.341C212.33 198.868 212.394 201.457 212.271 203.982C212.119 207.131 211.694 210.257 211.574 213.409V213.467C211.13 216.156 210.729 218.854 210.365 221.562C209.958 221.429 209.491 221.456 209.013 221.723C205.637 223.615 201.843 224.668 198.025 224.903C196.103 225.021 194.199 224.955 192.287 224.722C191.03 224.571 189.792 224.296 188.552 224.035C189.205 221.163 189.906 218.304 190.698 215.476C191.351 213.149 192.078 210.834 192.976 208.596C193.882 206.337 195.01 204.179 196.06 201.989C196.544 200.975 195.974 199.426 194.717 199.532C194.345 199.563 193.973 199.587 193.599 199.605C189.961 199.788 186.177 199.362 182.586 198.982C178.498 198.547 174.355 198.097 170.303 197.39C170.003 197.339 169.88 197.767 170.176 197.871C172.098 198.549 173.998 199.316 175.969 199.824C177.997 200.35 180.038 200.829 182.096 201.204C184.067 201.561 186.046 201.861 188.032 202.114C189.327 202.279 190.637 202.363 191.941 202.474C190.185 205.419 188.975 208.741 187.92 212.011C186.566 216.211 185.571 220.533 184.597 224.846C182.514 234.09 180.796 243.427 179.453 252.823C178.489 259.559 177.71 266.322 177.125 273.103C176.951 271.044 176.74 268.99 176.501 266.939C175.703 260.129 174.536 253.364 172.977 246.701C173.117 246.444 173.182 246.135 173.136 245.836C172.855 244.005 172.115 242.41 171.467 240.711C170.822 238.339 170.127 235.982 169.379 233.642C168.53 230.456 167.577 227.319 166.358 224.254C165.427 221.919 164.364 219.644 163.18 217.438C161.767 214.353 160.214 211.336 158.509 208.45C158.421 208.182 158.277 207.931 158.072 207.721C157.761 207.206 157.447 206.698 157.126 206.195C156.916 205.867 156.316 206.067 156.475 206.483C156.549 206.678 156.623 206.874 156.699 207.067C149.754 205.244 142.945 208.031 136.33 210.089C134.661 210.61 132.976 211.081 131.264 211.42C129.919 211.686 128.351 212.009 127.009 211.717C126.111 211.521 125.714 211.093 126.152 210.087C126.604 209.045 127.838 208.359 128.909 207.899C129.312 207.807 129.709 207.646 130.092 207.401C130.983 206.834 131.374 205.65 130.954 204.641C130.571 203.729 129.456 202.944 128.469 203.361C128.328 203.421 128.188 203.478 128.049 203.536C128.034 203.514 128.017 203.484 128.002 203.439C127.861 203.034 127.8 203.519 127.861 202.938C127.962 201.989 128.919 201.126 129.574 200.583C131.203 199.228 133.557 198.226 135.659 198.738C135.817 198.776 135.976 198.822 136.132 198.88C138.297 199.667 139.352 196.395 137.621 195.174C137.516 195.102 137.383 195.009 137.237 194.899C136.516 194.374 135.462 193.489 135.75 192.691C136.104 191.701 138.198 191.13 138.99 190.793C141.855 189.574 144.95 188.881 148.039 188.74C151.147 188.598 154.295 188.957 157.292 189.837C158.763 190.267 160.273 190.922 161.664 191.583C162.912 192.175 165.629 192.957 165.803 194.616C165.841 194.982 166.337 195.106 166.445 194.706C167.296 191.522 163.992 189.467 161.811 188.152C160.381 187.287 158.759 186.749 157.189 186.219C155.685 185.709 154.149 185.334 152.581 185.108C149.216 184.624 145.81 184.686 142.472 185.365C139.432 185.984 136.05 187.039 133.592 189.092C132.084 190.351 131.402 192.356 132.008 194.312C132.029 194.376 132.05 194.443 132.071 194.507C129.357 195.017 126.788 196.649 125.07 198.924C123.659 200.794 122.919 203.395 124.183 205.571C124.13 205.61 124.077 205.652 124.026 205.696C122.822 206.708 121.926 208.176 121.66 209.781C121.138 212.947 122.961 215.162 125.511 216.01C124.88 216.657 124.273 217.344 123.68 218.031C122.351 219.573 121.081 221.251 119.961 222.964C117.692 226.431 115.753 230.208 114.057 234.012C110.569 241.826 108.369 250.238 107.203 258.765C106.616 263.063 106.223 267.382 106.073 271.719C105.899 276.665 106.075 281.612 105.984 286.559C105.895 291.312 105.395 295.952 104.383 300.586C103.413 305.019 102.12 309.362 100.949 313.737C99.6291 318.664 98.1756 323.57 97.4784 328.65C97.1256 331.235 96.8721 333.828 97.0686 336.441C97.2672 339.105 98.1883 341.382 99.0376 343.859C99.2531 344.491 99.9101 344.745 100.436 344.611C100.554 345.796 100.981 346.955 101.617 347.957C102.967 350.081 105.046 351.436 107.427 351.928C110.11 352.48 112.876 352.35 115.592 352.247C118.54 352.137 121.489 352.037 124.436 351.908C127.522 351.775 130.607 351.637 133.693 351.499C133.591 348.179 133.469 344.862 133.331 341.543C132.587 323.609 131.416 305.663 131.385 287.703C131.325 287.666 131.266 287.623 131.21 287.566C129.821 286.157 128.116 285.231 126.514 284.128C125.607 283.503 126.454 281.968 127.367 282.597C128.717 283.526 130.125 284.352 131.391 285.394C131.398 283.525 131.414 281.656 131.449 279.786C131.471 278.645 133.161 278.645 133.14 279.786C133.033 285.42 133.069 291.056 133.19 296.69C133.584 314.948 134.819 333.172 135.382 351.423C143.664 351.052 151.946 350.677 160.229 350.36C166.967 350.103 173.704 349.846 180.441 349.588C181.855 349.536 182.649 348.475 182.822 347.089C183.139 344.54 182.544 341.903 181.196 339.758C181.056 339.537 180.891 339.34 180.708 339.171C180.739 337.643 180.798 336.113 180.716 334.585C180.594 332.253 180.41 329.92 180.249 327.589C179.924 322.922 179.672 318.245 179.573 313.567C179.37 304.21 179.518 294.843 180.023 285.499C181.035 266.83 183.391 248.282 187.246 230.021C187.527 228.691 187.81 227.361 188.104 226.032C191.102 227.667 194.748 228.253 198.025 228.276C202.132 228.303 206.148 227.311 209.858 225.509C209.833 225.71 209.808 225.911 209.784 226.112C208.749 234.76 207.877 243.425 207.116 252.102C205.599 269.401 204.67 286.769 204.798 304.145C204.834 308.959 205.01 313.757 205.227 318.564C205.449 323.454 205.789 328.621 207.086 333.338C207.23 333.858 207.549 334.158 207.917 334.266C207.936 334.953 207.978 335.644 208.024 336.321C208.174 338.528 208.603 343.112 209.52 345.111C210.414 347.063 211.903 348.61 213.803 349.462C216.215 350.542 218.824 350.231 221.372 350.058C232.451 349.301 243.522 348.285 254.594 347.393C256.136 347.269 257.679 347.147 259.219 347.021C260.59 346.91 262.008 346.812 263.225 346.065C264.608 345.216 265.688 341.045 265.21 339.32C265.124 339.005 264.993 338.695 264.82 338.415Z" fill="black"/>
<path fill-rule="evenodd" clip-rule="evenodd" d="M232.931 120.896C232.86 118.244 229.186 117.143 228.124 119.769C228.058 119.839 227.987 119.907 227.919 119.968C228.252 119.668 227.557 120.163 227.444 120.225C227.347 120.277 227.248 120.324 227.149 120.373C226.467 113.656 224.149 106.414 218.159 103.042C209.804 98.7901 200.151 97.9601 190.986 98.3825C186.343 98.6716 180.981 99.4508 176.856 96.9855C175.571 96.2174 174.54 95.0083 173.088 94.5335C168.503 93.2317 166.423 98.1734 167.047 102.237C165.092 102.253 163.151 103.39 162.307 105.261C161.812 106.368 161.82 107.563 161.393 108.675C160.082 111.493 158.205 113.519 159.266 116.936C157.4 119.164 158.464 122.537 159.97 124.671C160.713 125.78 161.599 126.846 162.143 128.087C162.672 129.277 161.874 130.687 161.43 131.814C158.147 139.985 158.334 148.984 160.101 157.506C156.556 159.121 155.492 164.167 157.804 167.345C158.599 168.469 159.569 168.885 160.67 169.577C162.062 170.382 160.925 173.604 161.371 175.159C161.977 178.96 165.273 181.298 168.532 178.832C170.6 178.503 172.268 184.818 173.769 186.403C174.694 187.68 175.722 188.827 176.838 189.885C180.166 198.872 197.216 203.428 205.646 202.908C214.474 201.938 220.43 194.07 225.389 187.086C227.935 183.365 229.591 179.2 230.193 174.658C230.798 170.092 230.534 165.519 230.125 160.949C229.266 151.237 227.91 137.246 227.035 127.43C230.198 127.156 233.027 124.33 232.931 120.896Z" fill="white"/>
<path fill-rule="evenodd" clip-rule="evenodd" d="M163.976 115.058C163.973 115.071 163.978 115.081 163.981 115.096C163.981 115.092 163.982 115.089 163.983 115.084C163.98 115.074 163.978 115.066 163.976 115.058Z" fill="#4F66AF"/>
<path fill-rule="evenodd" clip-rule="evenodd" d="M163.975 115.198C163.964 115.186 163.947 115.177 163.931 115.164C163.93 115.164 163.93 115.165 163.93 115.165C163.945 115.176 163.96 115.188 163.975 115.198Z" fill="#4F66AF"/>
<path fill-rule="evenodd" clip-rule="evenodd" d="M232.428 122.151C233.467 121.245 235.103 122.08 234.751 123.571C234.368 125.196 232.709 126.306 231.34 126.973C229.93 127.66 228.557 127.792 227.019 127.717L227 127.713C227.427 129.51 227.67 131.377 227.996 133.185C228.411 135.478 228.818 137.773 229.22 140.068C229.609 142.287 230.1 144.508 230.398 146.738C230.699 148.989 230.988 151.242 231.284 153.493C231.778 157.253 232.176 161.031 232.596 164.803L232.797 166.588C233.217 170.366 233.556 174.149 232.759 177.909C232.011 181.433 230.328 184.72 228.375 187.662C226.463 190.542 224.327 193.312 221.982 195.817C217.459 200.649 211.882 204.519 205.342 205.237C202.526 205.546 199.518 205.202 196.871 204.128L196.695 204.055C194.015 202.945 190.733 201.043 190.036 197.923C189.608 196.009 191.487 194.515 193.134 195.423C193.898 195.845 194.472 196.325 195.099 196.928L195.21 197.036C195.722 197.535 195.919 197.688 196.51 198.079C197.722 198.879 198.63 199.258 200.007 199.622C202.545 200.292 205.284 200.186 207.861 199.393C213.332 197.711 217.576 193.32 221.211 188.918C223.185 186.527 225.059 184.02 226.504 181.233C228.02 178.31 228.72 175.241 228.678 171.915C228.631 168.163 228.137 164.395 227.812 160.659C227.482 156.852 227.176 153.045 226.907 149.231C226.655 145.655 226.631 142.063 226.543 138.476L226.525 137.804C226.474 135.899 226.438 133.994 226.396 132.09C226.356 130.19 226.212 128.267 226.399 126.376C226.412 126.238 226.589 126.203 226.632 126.343C226.742 126.697 226.838 127.057 226.929 127.419C226.943 127.408 226.958 127.398 226.977 127.391C228.183 126.956 229.292 126.088 230.197 125.153C231.059 124.26 231.51 122.952 232.428 122.151ZM166.497 95.5431C167.254 92.2799 170.66 91.551 173.179 93.1225C174.391 93.8781 175.361 94.968 176.492 95.8342C177.618 96.6954 178.861 97.387 180.173 97.8755C182.78 98.8458 185.53 99.1987 188.285 99.2112C194.991 99.2421 201.559 97.2642 208.275 97.4847C213.471 97.6555 218.987 99.2674 222.756 103.21C224.786 105.334 226.095 108.064 226.797 110.963C227.125 112.318 227.369 113.706 227.562 115.09L227.609 115.436C227.717 116.245 227.89 117.102 227.906 117.919C227.921 118.654 227.744 119.423 227.648 120.149C227.446 121.682 225.185 121.507 224.86 120.149C224.12 117.058 224.429 113.868 223.525 110.787C222.724 108.055 221.17 105.667 218.918 104.033C209.42 97.1414 197.239 102.913 186.774 102.376C184.216 102.245 181.621 101.83 179.208 100.906C177.964 100.429 176.739 99.8479 175.611 99.1166C174.577 98.447 173.682 97.6057 172.725 96.8315L172.303 96.4949C171.647 95.977 170.531 95.1673 169.869 95.8524C169.581 96.1505 169.564 96.8248 169.569 97.3396L169.572 97.5723C169.602 99.7583 170.027 101.94 169.247 104.052C168.892 105.015 167.904 105.623 166.964 105.077L166.915 105.048C164.928 103.807 162.316 106.301 163.843 108.365L163.891 108.427C164.75 109.523 164.292 111.453 162.754 111.448L162.698 111.447C159.959 111.357 158.743 114.951 161.104 116.521L161.177 116.568C163.094 117.772 161.413 120.668 159.448 119.674C159.614 119.758 159.325 119.757 159.159 119.99C159 120.214 158.988 120.408 159.026 120.691C159.141 121.548 159.859 122.271 160.441 122.813C161.763 124.045 163.401 124.896 165.09 125.414C171.852 127.489 178.79 124.951 185.379 123.418C192.249 121.82 200.007 121.176 205.998 125.711C206.069 125.764 206.007 125.884 205.928 125.837C201.629 123.216 196.363 123.449 191.663 124.523C185.501 125.932 179.392 128.554 173.08 129.245C174.852 132.528 175.594 136.406 175.12 140.161C174.795 142.746 173.814 144.988 172.657 147.261L172.436 147.694C171.404 149.733 170.604 151.66 170.591 154.023C170.579 156.37 167.254 156.865 166.69 154.577C165.41 149.381 170.072 145.288 171.974 141.002C173.6 137.339 173.65 133.068 172.334 129.318C170.85 129.443 169.354 129.456 167.843 129.315C166.545 129.193 165.21 128.947 163.909 128.559L163.388 130.856C162.698 133.916 162.059 136.974 161.865 140.152C161.723 142.487 161.73 144.834 161.947 147.164C162.135 149.176 162.531 151.116 162.934 153.081C163.279 153.559 163.456 154.292 163.359 154.875C165.603 155.553 167.367 157.412 168.012 159.872C168.051 160.022 167.852 160.106 167.777 159.977C166.247 157.312 162.307 156.332 159.815 158.093C157.436 159.772 156.497 163.165 157.844 165.851C158.553 167.263 159.603 168.256 160.958 168.939L161.23 169.073C161.94 169.426 162.592 169.81 163.048 170.518C163.641 171.436 163.661 172.407 163.605 173.457L163.58 173.883C163.543 174.586 163.535 175.309 163.734 175.986L163.78 176.137C163.832 176.306 163.888 176.454 163.984 176.616C164.012 176.664 164.282 176.941 164.37 177.042L164.481 177.077L164.604 177.083C164.742 177.085 164.922 177.022 164.863 177.065L164.879 177.055C164.931 177.022 164.979 176.985 165.02 176.953L165.096 176.891C165.276 176.619 165.5 176.393 165.776 176.222L166.04 176.099C166.724 175.341 167.896 175.74 168.387 176.495C168.74 177.038 168.93 177.59 168.946 178.135C169.001 178.043 169.123 177.991 169.201 178.095L169.666 178.717C171.446 181.104 173.195 183.506 175.217 185.681C176.331 186.88 177.529 188.006 178.782 189.044C179.851 189.93 181.88 190.781 181.911 192.395C181.921 192.92 181.566 193.29 181.133 193.468C179.722 194.046 177.978 192.079 176.959 191.121L176.876 191.044C175.629 189.897 174.49 188.639 173.44 187.293C171.4 184.678 169.694 181.669 168.942 178.358C168.907 178.936 168.67 179.502 168.211 180.037C167.599 180.747 166.761 181.246 165.866 181.451C163.839 181.916 161.86 181.15 160.654 179.378C159.634 177.879 159.334 175.9 159.466 174.089L159.482 173.872C159.5 173.581 159.524 173.049 159.595 172.822L158.957 172.455C158.175 172.017 157.449 171.444 156.798 170.815C154.182 168.283 152.87 164.169 154.066 160.569C154.814 158.317 156.386 156.357 158.399 155.339C158.062 154.523 157.95 153.554 157.823 152.696L157.801 152.555C157.586 151.148 157.406 149.723 157.337 148.3C157.209 145.641 157.365 142.958 157.763 140.33C158.41 136.061 159.748 131.535 162.201 127.954C160.33 127.174 158.607 126.045 157.277 124.477C155.888 122.838 155.002 120.492 156.076 118.411C156.35 117.88 156.707 117.435 157.117 117.08C156.406 115.671 156.176 114.005 156.615 112.413C157.139 110.51 158.563 109.025 160.283 108.332C159.865 106.529 160.206 104.589 161.483 103.086C162.749 101.595 164.715 101.052 166.534 101.393C166.633 99.4747 166.058 97.4347 166.497 95.5431ZM161.394 162.885C163.062 162.029 165.039 162.165 166.705 162.977L166.818 163.033C168.638 163.959 171.047 166.122 170.469 168.423C170.13 169.769 168.706 170.228 167.601 169.647C166.679 169.162 166.468 168.295 166.006 167.423C165.678 166.806 165.274 166.324 164.799 165.829C163.797 164.784 162.672 164.009 161.394 163.388C161.209 163.299 161.216 162.978 161.394 162.885ZM203.426 116.38C203.27 116.305 203.383 116.048 203.54 116.095C207.732 117.351 211.64 120.172 213.976 124.086C214.118 124.325 214.14 124.718 213.976 124.954L213.9 125.062C213.793 125.208 213.687 125.317 213.486 125.349C213.107 125.411 212.778 125.307 212.56 124.954C210.26 121.223 207.312 118.246 203.426 116.38ZM231.487 117.119C231.842 116.488 232.784 116.615 232.971 117.322L232.998 117.384C233.1 117.625 233.054 117.675 232.865 117.538C233.332 117.942 233.544 118.544 233.401 119.191C232.629 122.686 228.858 125.181 225.57 124.838C225.283 124.808 225.244 124.438 225.504 124.327C226.769 123.79 227.892 122.917 228.795 121.845C229.672 120.804 230.041 119.613 230.513 118.355C230.69 117.883 230.966 117.543 231.354 117.358C231.405 117.283 231.45 117.204 231.487 117.119ZM212.791 114.873L212.814 114.875C214.503 115.104 215.964 115.979 217.15 117.261C218.293 118.495 219.735 120.533 219.611 122.345C219.529 123.546 217.902 124.233 217.295 123.003C216.933 122.27 216.851 121.466 216.597 120.69C216.364 119.979 216.043 119.304 215.658 118.671C214.865 117.367 213.775 116.262 212.66 115.265C212.529 115.148 212.62 114.874 212.791 114.873ZM169.463 114.341C169.088 113.967 169.478 113.328 169.954 113.455C172.467 114.122 174.955 114.935 177.567 115.015C178.872 115.055 180.17 114.947 181.462 114.77L182.117 114.679C183.124 114.541 184.15 114.432 185.146 114.65C185.81 114.795 185.94 115.693 185.526 116.161C183.572 118.374 179.802 118.162 177.21 117.789C174.395 117.384 171.555 116.433 169.463 114.341ZM214.836 107.444C214.664 107.193 214.954 106.798 215.228 106.909C217.725 107.922 220.341 110.559 221.029 113.318C221.211 114.047 220.335 114.598 219.821 114.057C218.863 113.048 218.186 111.857 217.376 110.724C216.569 109.594 215.625 108.591 214.836 107.444ZM173.923 108.676C173.723 108.466 173.924 108.048 174.212 108.155C175.838 108.759 177.476 109.282 179.184 109.556C180.933 109.837 182.699 109.623 184.457 109.737C185.169 109.783 185.653 110.945 184.862 111.306C181.348 112.912 176.576 111.456 173.923 108.676ZM178.413 105.075C178.134 104.858 178.293 104.263 178.673 104.429C180.221 105.105 181.787 105.272 183.448 105.202C184.062 105.176 184.191 106.188 183.593 106.325C181.756 106.744 179.914 106.239 178.413 105.075Z" fill="black"/>
<path fill-rule="evenodd" clip-rule="evenodd" d="M195.934 178.776C195.956 176.333 197.973 175.912 199.89 176.238C203.134 176.789 206.39 177.176 209.678 177.246L210.244 177.257C210.336 177.116 210.488 177.01 210.695 176.987C212.518 176.78 214.38 176.814 216.212 176.757C217.811 176.708 219.454 176.54 221.052 176.672L221.179 176.684C223.133 176.882 225.195 177.929 224.959 180.335C224.742 182.563 222.712 184.536 221.092 185.774C220.764 186.022 220.429 186.255 220.084 186.467C219.976 186.612 219.818 186.713 219.636 186.734C218.04 187.638 216.279 188.173 214.456 188.351C210.592 188.729 206.099 188.32 202.387 186.563C201.18 185.991 200.055 185.277 199.06 184.401C197.525 183.049 195.917 180.999 195.934 178.776ZM211.16 183.621C209.611 183.571 208.064 183.799 206.589 184.301C205.589 184.639 204.678 185.291 203.719 185.743C206.948 187.036 210.7 187.317 214.012 187.082C215.466 186.979 216.875 186.628 218.188 186.022C217.983 185.867 217.776 185.71 217.559 185.572C216.904 185.156 216.219 184.802 215.505 184.52C214.114 183.972 212.646 183.67 211.16 183.621ZM211.679 162.256C211.261 161.941 211.593 160.898 212.486 161.06C220.598 162.522 216.395 177.188 206.038 169.14C204.805 168.096 206.298 165.797 207.627 166.69L208.099 167.072C209.633 168.306 212.171 170.173 213.989 168.17C215.705 165.647 213.275 163.273 211.679 162.256ZM217.171 151.156C218.896 149.612 221.059 150.75 222.328 152.314L222.552 152.594C222.806 152.913 223.087 153.284 223.256 153.682C224.663 152.424 226.571 151.54 228.396 152.114C230.167 152.673 231.176 154.447 230.872 156.351C230.527 158.517 228.966 159.973 227.288 161.098L226.813 161.415C224.797 162.764 222.91 164.123 221.251 165.977C220.98 166.279 220.395 166.239 220.218 165.837L220.075 165.515L219.931 165.192C218.754 162.558 217.493 159.941 216.457 157.245C215.69 155.247 215.441 152.704 217.171 151.156ZM197.514 152.555L197.777 152.236C199.04 150.693 201.181 149.659 202.869 151.156C204.666 152.75 204.314 155.387 203.513 157.42C202.549 159.873 201.423 162.271 200.341 164.677L200.109 165.192C200.012 165.407 199.917 165.622 199.822 165.837C199.645 166.239 199.058 166.279 198.789 165.977C197.181 164.181 195.363 162.853 193.42 161.546L192.834 161.154C191.128 160.019 189.516 158.553 189.166 156.352C188.866 154.451 189.869 152.666 191.642 152.114C193.471 151.544 195.375 152.422 196.784 153.682C196.952 153.274 197.241 152.891 197.514 152.555ZM199.826 141.483C200.443 142.324 199.784 143.698 198.883 143.915C197.767 144.185 196.64 144.021 195.544 144.355C194.54 144.661 193.579 145.275 192.718 145.886C191.737 146.583 190.833 147.362 190.002 148.248C189.509 148.776 188.886 150.026 188.124 150.049C187.367 150.072 188.384 147.586 188.468 147.371C189.065 145.84 189.904 144.431 190.953 143.197C193.024 140.762 197.409 138.192 199.826 141.483ZM222.95 140.81L223.467 140.961C224.746 141.334 226.111 141.792 227.209 142.597L227.295 142.661L227.428 142.763C228.805 143.841 230.754 145.992 229.778 147.868C229.711 147.998 229.568 148.01 229.453 147.958C228.155 147.361 227.192 146.169 225.812 145.671L225.557 145.58C224.22 145.107 222.566 144.61 221.127 144.655C220.115 145 218.748 144.714 218.485 143.422L218.473 143.358L218.45 143.224C218.298 142.341 218.524 141.215 219.394 140.789C220.586 140.206 221.75 140.465 222.95 140.81Z" fill="black"/>
<path fill-rule="evenodd" clip-rule="evenodd" d="M192.858 185.056C194.569 180.851 198.302 177.76 202.6 176.629C205.757 175.801 209.069 175.829 212.287 176.157C213.972 176.328 215.781 176.468 217.369 177.124C218.726 177.686 219.832 178.747 220.663 179.993C221.652 181.469 222.325 183.158 222.798 184.889C222.865 185.136 222.928 185.383 222.987 185.633C222.782 186.939 222.345 188.051 221.192 188.872C220.067 189.674 218.725 190.003 217.387 190.119C217.256 190.053 217.129 189.985 217.013 189.915C214.928 188.662 213.46 185.701 210.828 186.102C208.479 186.46 206.933 189.562 205.536 191.38C201.053 191.929 196.573 190.515 192.925 187.824C192.74 186.904 192.729 185.974 192.858 185.056ZM226.034 181.866C225.675 180.81 225.224 179.786 224.688 178.823C222.918 175.636 220.201 173.096 216.975 171.644C209.343 168.215 199.469 170.632 193.306 176.257C191.201 178.18 189.072 181.005 188.428 184.045C188.236 184.085 188.055 184.189 187.905 184.337C183.453 181.394 178.867 178.564 175.279 174.486C172.674 171.522 170.861 168.015 169.751 164.161C169.661 163.844 169.173 163.89 169.188 164.242C169.192 164.324 169.196 164.405 169.201 164.487C169.154 164.336 168.935 164.414 168.918 164.561C168.321 169.242 167.574 174.206 168.262 178.911C168.673 181.72 169.889 183.775 171.513 185.995C173.254 188.375 175.224 190.587 177.239 192.71C178.518 194.057 179.853 195.611 181.419 196.599C183.24 197.747 185.305 198.619 187.249 199.504C189.225 200.407 191.232 201.242 193.276 201.966C197.363 203.417 201.587 204.421 205.885 204.861C209.326 205.211 213.259 205.593 216.557 204.235C219.084 203.194 221.125 201.312 222.743 199.047C224.505 196.581 225.897 193.771 226.667 190.81C227.467 187.732 226.203 182.362 226.034 181.866Z" fill="black"/>
</svg>
